<svg xmlns="http://www.w3.org/2000/svg" xmlns:xlink="http://www.w3.org/1999/xlink" viewBox="0 0 800 480"><defs><style>.cls-1{fill:#fff;}.cls-2{stroke:#fff;stroke-miterlimit:10;stroke-width:2.79px;fill:url(#radial-gradient);}.cls-3{fill:url(#radial-gradient-2);}</style><radialGradient id="radial-gradient" cx="400.05" cy="240" r="135.42" gradientUnits="userSpaceOnUse"><stop offset="0" stop-color="#da796b"/><stop offset="1" stop-color="#bc2f2c"/></radialGradient><radialGradient id="radial-gradient-2" cx="400" cy="240" r="163.38" gradientUnits="userSpaceOnUse"><stop offset="0" stop-color="#722b37"/><stop offset="0.42" stop-color="#a84247"/><stop offset="1" stop-color="#9b363a"/></radialGradient></defs><g id="Layer_2" data-name="Layer 2"><g id="Layer_1-2" data-name="Layer 1"><rect class="cls-1" width="800" height="480"/><circle class="cls-2" cx="400.05" cy="240" r="135.42"/><path class="cls-3" d="M400.32,403.41A163.38,163.38,0,1,1,541.51,158.33c45,78,18.21,178.09-59.79,223.13A162.39,162.39,0,0,1,400.32,403.41ZM399.8,85A155,155,0,1,0,477.53,374.2c74-42.72,99.45-137.68,56.72-211.68a153.9,153.9,0,0,0-94.09-72.2A155.71,155.71,0,0,0,399.8,85Z"/><path class="cls-1" d="M484.29,222.54a57,57,0,0,0-32.8-7.51,55.7,55.7,0,0,0-4.06-7.14A57.2,57.2,0,0,0,407,119v5.73a43.19,43.19,0,0,1,27.07,69.32,56.94,56.94,0,0,0-68.09,0,43.18,43.18,0,0,1,27.06-69.32V119a57.2,57.2,0,0,0-40.4,88.88,55.7,55.7,0,0,0-4.06,7.14,57.2,57.2,0,0,0-56.83,79.42l5-2.87a43.19,43.19,0,0,1,46.47-58.1,58.38,58.38,0,0,0-.4,6.52,57.24,57.24,0,0,0,34.46,52.5,43.18,43.18,0,0,1-73.55,11.17l-5,2.87A57.2,57.2,0,0,0,396,297c1.36.1,2.71.21,4.09.21s2.74-.11,4.09-.21a57.2,57.2,0,0,0,97.2,9.51l-5-2.87a43.18,43.18,0,0,1-73.55-11.17A57.24,57.24,0,0,0,457.29,240a56.08,56.08,0,0,0-.4-6.52,43.19,43.19,0,0,1,46.47,58.1l5,2.87A57.22,57.22,0,0,0,484.29,222.54Zm-64.56,56a43,43,0,0,1,3.81-20.11l-10.31-5.95a18.09,18.09,0,0,1-26.36,0l-10.31,5.95a43.13,43.13,0,0,1,3.82,20.11A43.23,43.23,0,0,1,356.77,240c0-.75.08-1.47.11-2.21a43,43,0,0,1,15.49,13.36l10.3-6a18.1,18.1,0,0,1,13.19-22.84V210.45a43,43,0,0,1-19.33-6.75,43.12,43.12,0,0,1,47,0,43,43,0,0,1-19.33,6.75v11.91a18.13,18.13,0,0,1,14,17.64,17.87,17.87,0,0,1-.77,5.2l10.3,5.94a43.2,43.2,0,0,1,15.49-13.35c0,.74.11,1.46.11,2.21A43.22,43.22,0,0,1,419.73,278.51Z"/></g></g></svg>