<svg xmlns="http://www.w3.org/2000/svg" viewBox="0 0 922.24 1075"><defs><style>.cls-1,.cls-10,.cls-8{fill:#fff;}.cls-2{opacity:0.03;}.cls-3,.cls-8{opacity:0.1;}.cls-4{opacity:0.05;}.cls-5{opacity:0.02;}.cls-6{fill:#36558c;}.cls-7{fill:#d1b09c;}.cls-24,.cls-9{opacity:0.2;}.cls-10{opacity:0.11;}.cls-11{fill:#966558;opacity:0.5;}.cls-12{fill:#e1bbbb;}.cls-13{fill:#f0f2fd;}.cls-14{fill:#b4b5be;}.cls-15{fill:#87888f;}.cls-16{fill:#2e3192;}.cls-17{fill:#6c6d79;}.cls-18{fill:#ccc;}.cls-19{fill:gray;opacity:0;}.cls-20{fill:#e8ecef;}.cls-21{fill:#98a7bd;}.cls-22{opacity:0.15;}.cls-23{fill:#eabc9f;}.cls-24{fill:#1b1464;}</style></defs><g id="Layer_2" data-name="Layer 2"><g id="Layer_2-2" data-name="Layer 2"><path class="cls-1" d="M296.08,417.38h0a104,104,0,0,1-49.78,39.31L173,484.17a149.36,149.36,0,0,0-29.46,14.93l-33.06,21.64A30.18,30.18,0,0,0,99,535L87.09,565.09a598.34,598.34,0,0,0-24.8,78.53l-1.76,7.31a96.05,96.05,0,0,1-7.41,20.3L47.8,681.86a37.64,37.64,0,0,0-3.65,11.89L36,755.33l0,.34L32,834.5l-3,37.73a3.35,3.35,0,0,1-.08.54L26,886.22a3.47,3.47,0,0,1-.16.55L18.1,908.16a4,4,0,0,0-.18.7L14,931.5l-3,20.75a3.16,3.16,0,0,1-.1.5L8,963.5l-5.9,19.67a3.07,3.07,0,0,0-.14.67L0,999.07a4.94,4.94,0,0,0,0,.86l.87,10.44a4.27,4.27,0,0,0,.76,2.06l3.57,5a4.13,4.13,0,0,1,.77,2.4v18.34a5.19,5.19,0,0,0,0,.68l1.83,10.93a4,4,0,0,0,.49,1.37l7.45,13a4.89,4.89,0,0,0,.41.6l3.53,4.23a4.1,4.1,0,0,0,3.17,1.49h841a4.15,4.15,0,0,0,3.28-1.61l8.18-10.64a4.06,4.06,0,0,1,1.43-1.17l.86-.44A4.13,4.13,0,0,0,880,1053v-1a4.13,4.13,0,0,1,1-2.65l3.08-3.7a4.13,4.13,0,0,0,1-2.65v-11.12a3.91,3.91,0,0,1,.07-.76l2.87-15.33a3.83,3.83,0,0,0,.07-.58l1-22.28a5,5,0,0,0-.05-.86l-.8-4.8a4.12,4.12,0,0,0-.54-1.44l-1.35-2.25a4.14,4.14,0,0,1,0-4.18l2.19-3.84a4.12,4.12,0,0,0,.54-2.28l-1.42-25.12,0-.32-6-44.84-3-18-14-71.89a1.74,1.74,0,0,0,0-.22l-19-74.89-24-87.81-.09-.38-4.91-28.54a3.31,3.31,0,0,1-.06-.55l-2-54.18a3.73,3.73,0,0,0-.18-1L804.48,533s-4-15-5-15-15-13.21-18.3-16.34a4.05,4.05,0,0,0-1.63-.94L757.62,494l-.29-.07-30.54-6.9a4.31,4.31,0,0,1-.61-.19l-47.59-18.83-.23-.09-39.55-13a152,152,0,0,1-49.49-27.34h0a177.94,177.94,0,0,1-23.49-23.49L548.5,383.23a4.17,4.17,0,0,0-2.6-1.46h0a4.14,4.14,0,0,0-4.68,4.65L543.48,403l3,22.07a118,118,0,0,1,1.1,13.92l.75,35.57a18.94,18.94,0,0,1-2.69,10.11h0a4.12,4.12,0,0,0-.34.7L527.48,534l-22,71-13,51-16,65-12.71,61.15a4.13,4.13,0,0,1-8,.36L429.48,696l-34-99-29.89-86.67a3.55,3.55,0,0,0-.28-.63l-5.71-10.48a4.54,4.54,0,0,1-.21-.45l-3.69-9.22a4.14,4.14,0,0,1-.28-1.14l-6.9-71a3.57,3.57,0,0,1,0-.8L353.43,365a4.13,4.13,0,0,0-7-3.38L329.13,378.2A237.54,237.54,0,0,0,296.08,417.38Z"/><path class="cls-2" d="M217.48,589l4,12-7.86,40.07q-2.15,10.92-3.56,22l-5.6,43.54a178.61,178.61,0,0,0-1.28,30.93l1.3,28.48-10.36-27.61a164.36,164.36,0,0,0-11.21-23.88l-20-35q-5.42-9.48-11.48-18.57l-1.2-1.8q-6.74-10.11-12.83-20.63L132.48,630l3.18-1.27a3,3,0,0,1,3.21.66l3.61,3.61-6.59-16.72A211.13,211.13,0,0,0,120.48,585h0l11-11,22,50,11.1,26.64q3.9,9.36,7.2,18.94l1.09,3.17q5.61,16.25,12.69,31.92l2.71,6a168.42,168.42,0,0,1,7.26,19.09l1.95,6.23.66-19.73A181.53,181.53,0,0,1,200,695.84L204.48,665l9-45,2.39-13.15A99.83,99.83,0,0,0,217.48,589Z"/><path class="cls-2" d="M237.48,609l-11,39-4.68,18.73Q219.48,676,216.32,685l-3.84,11h0a116,116,0,0,1,24.05,25.69l2.95,4.31-.86-12a7.1,7.1,0,0,0-1.27-3.56h0a57.92,57.92,0,0,0-14.27-14.27h0a2.88,2.88,0,0,1-1.14-3L228.48,666l4.07-19.66q1.92-9.33,2.94-18.82Z"/><path class="cls-2" d="M149.15,720.55l3.79,1a9,9,0,0,1,2.84,1.34l20.41,14.36a51.9,51.9,0,0,1,9.5,8.63l10.89,12.71a59.23,59.23,0,0,1,5.26,7.15l1,1.56a13,13,0,0,1,1.93,5.81h0a274.77,274.77,0,0,0,6.62,41.22l1.12,4.64L203,806.06a23.5,23.5,0,0,1-2.54-4.4h0a99.94,99.94,0,0,0-15.67-25h0a25.72,25.72,0,0,0-5.24-4.64h0a146.55,146.55,0,0,1-22.31-18.29h0a52.46,52.46,0,0,1-5.06-5.88l-9.38-12.73a16.26,16.26,0,0,1-2.95-7h0a6.11,6.11,0,0,1,.72-4h0A7.59,7.59,0,0,1,149.15,720.55Z"/><path class="cls-3" d="M204.48,829l1,2.93a1.44,1.44,0,0,0,2.62.26l2.4-4.19v16l-1,24-4-20-1.79-11.62a18.49,18.49,0,0,1-.21-2.78v-2.67a2.25,2.25,0,0,1,.66-1.59Z"/><polygon class="cls-2" points="211.48 820 208.48 824 196.48 837 184.48 868 197.48 844 203.48 839 208.48 873 213.48 902 218.48 934 220.48 941 225.48 939 217.48 910 212.48 876 210.48 858 210.48 835 213.48 827 213.48 819 211.48 820"/><path class="cls-2" d="M19.06,939.16l5.44-10.38a30.92,30.92,0,0,1,4.9-6.89L37.72,913A48.05,48.05,0,0,1,46.05,906l6.57-4.38A47.6,47.6,0,0,1,67.48,895l7.15-1.79a65.44,65.44,0,0,1,9.82-1.68l13.44-1.28c1.73-.17,3.46-.25,5.19-.25h0a12.82,12.82,0,0,0,7.87-2.7l1.78-1.38a21.13,21.13,0,0,1,8.39-3.95l3.7-.82a1.89,1.89,0,0,1,1.26.15h0a1.9,1.9,0,0,0,2.72-2l-.2-1.11a20,20,0,0,0-5.54-10.57l-5.19-5.19a15.75,15.75,0,0,0-3.08-2.38l-3.86-2.27a46,46,0,0,0-24.73-6.33l-1.33.05a56.07,56.07,0,0,0-31.42,10.83l-8,5.9a45.68,45.68,0,0,0-12.77,14.37L28,890.87a54.11,54.11,0,0,0-5.26,12.94L19.48,916l-4,16.79a2,2,0,0,0,0,.43v5.06A1.9,1.9,0,0,0,19.06,939.16Z"/><path class="cls-2" d="M142.22,914.13,124.48,923l8.92-2.55a10.46,10.46,0,0,1,9.26,1.77l8.82,6.78,13,10,5-2-12-7,11.68,5a8.06,8.06,0,0,0,4.8.5l2.22-.44a37.15,37.15,0,0,1,10.68-.57l2.86.26a31.4,31.4,0,0,1,5.43,1l8.33,2.27,8,2,9,1-1-3H217.7a24.94,24.94,0,0,1-16.22-6h0l-.49-.44a71.81,71.81,0,0,0-21.39-13.31l-3.88-1.55a67.43,67.43,0,0,0-8.67-2.81L155.48,911h0A29.62,29.62,0,0,0,142.22,914.13Z"/><path class="cls-2" d="M145.17,912.85c-.69.15-39.69-5.85-40.69-5.85s-27-5-27-5l28.48-.84a60.79,60.79,0,0,0,10.92-1.32h0a21.63,21.63,0,0,0,13.48-9.16h0a9.79,9.79,0,0,0,1.48-3.67h0a45.39,45.39,0,0,0-.35-18V869l4.09,6.14a15.21,15.21,0,0,1,2,12.63h0a21.72,21.72,0,0,1-8.14,11.65h0A25.77,25.77,0,0,1,118.48,904h0l21,3.82c.65.12,1.3.27,1.94.44l10,2.74Z"/><path class="cls-2" d="M22.12,941.29l1.78,3.55a2.45,2.45,0,0,0,1.86,1.34l4.92.71a2.47,2.47,0,0,0,1.51-.27L46.48,939,55,934.77a47.08,47.08,0,0,1,15.9-4.7l7.78-.86c1.23-.14,2.46-.33,3.68-.58l9.38-1.87A36.09,36.09,0,0,0,99,924.45l11.53-5a2.54,2.54,0,0,0,1.31-1.35h0a2.49,2.49,0,0,0-2.7-3.37l-18.39,2.94a29.27,29.27,0,0,0-4.5,1.11l-16.79,5.59c-1.33.45-2.69.84-4,1.18l-11.94,3a18.56,18.56,0,0,0-3.87,1.43l-10.93,5.46a25.91,25.91,0,0,1-2.48,1.09l-5.91,2.21a2.46,2.46,0,0,1-1.65,0l-3.38-1.12a2.47,2.47,0,0,0-2.84,1l-.15.23A2.47,2.47,0,0,0,22.12,941.29Z"/><path class="cls-2" d="M39.49,950,41,953.07a3.26,3.26,0,0,0,1.4,1.4l6.16,3.08a3.15,3.15,0,0,0,1.91.28l4.59-.76a3.52,3.52,0,0,0,.78-.24L66.48,952l11.93-6.37q3.07-1.62,6.25-3L97.48,937l22-9,7.31-3.32a18.63,18.63,0,0,1,7.74-1.68h0a3.17,3.17,0,0,0,1.74-.52l2.21-1.48-7.34.9a46.54,46.54,0,0,0-11.43,2.88l-24.63,9.6c-1.07.41-2.12.86-3.16,1.34L67.48,947l-12,5.54a3.08,3.08,0,0,1-2.07.19l-4.57-1.14a3.12,3.12,0,0,1-2.36-3h0A3.12,3.12,0,0,0,44,945.5l-.85-.17a3.09,3.09,0,0,0-2.82.85l-.23.23A3.1,3.1,0,0,0,39.49,950Z"/><path class="cls-2" d="M118.19,936.86,94.93,951.11q-1.46.89-3,1.65l-3.36,1.68a57.28,57.28,0,0,1-31.92,5.69h0a10.14,10.14,0,0,0-2.4,0h0a15.41,15.41,0,0,0-10.73,6.47L28,988.77a43.14,43.14,0,0,0-2.82,4.64l-7,13.5a105.69,105.69,0,0,0-7.61,18.92h0a23.76,23.76,0,0,0,.25,14.26l1.64,4.91,8-16a204.48,204.48,0,0,1,16-26.68l3.82-5.39A38.85,38.85,0,0,1,50.48,987h0l5-1-14,26-15.31,29.66c-.46.89-.88,1.8-1.27,2.73l-3.51,8.43a1.58,1.58,0,0,0,1.46,2.18h1.63l15-27,7.94-12.9A267.39,267.39,0,0,1,65,989.91h0a7,7,0,0,0,1.5-4.34h0a9.77,9.77,0,0,1,2.31-6.3l3.85-4.56a56.89,56.89,0,0,1,11-10h0a31.58,31.58,0,0,1,15.14-5.49l1.64-.15c.71-.07,1.42-.17,2.12-.3l12.71-2.38a39.59,39.59,0,0,0,4.42-1.09l6.79-2.09a37.73,37.73,0,0,0,7.69-3.33l3.34-1.91-18,2-15,2,14-8,6.14-3.51A43.72,43.72,0,0,1,141.48,935h0l-9.67-1.14A21.27,21.27,0,0,0,118.19,936.86Z"/><path class="cls-2" d="M113.48,962l-14.36,3.83c-.43.11-.85.24-1.27.38L87.68,969.6a6.13,6.13,0,0,0-2.15,1.25l-5.91,5.32a25,25,0,0,0-5.19,6.53l-1.07,1.91A5.79,5.79,0,0,0,73.9,991h0A4.32,4.32,0,0,0,78,992.59l.5-.09a8.47,8.47,0,0,0,5-2.81L94.3,977.21a4.86,4.86,0,0,1,.38-.41l6.63-6.64a2.54,2.54,0,0,1,.36-.29Z"/><path class="cls-2" d="M49.75,1016.73l2.11,5.83a20.16,20.16,0,0,1,1.1,9.14l-1.35,12.13c-.09.78-.21,1.56-.36,2.33l-.58,2.88a58.55,58.55,0,0,0-.19,22H31.55a17.07,17.07,0,0,1-12.07-5h0l-3-5h0a17.28,17.28,0,0,0,15.65-10l2.35-5,6.27-14.11a60.42,60.42,0,0,1,4-7.5l1.67-2.66a3.67,3.67,0,0,0,.18-3.56l-.47-.95,1.83-3,1,1.15A4.33,4.33,0,0,1,49.75,1016.73Z"/><path class="cls-2" d="M114.48,968l10-6-.88,2.06a73.21,73.21,0,0,1-14,21.39L101.48,994l-8.4,9.66A233.42,233.42,0,0,0,72,1031.94l-6,9.5a45.55,45.55,0,0,0-5.33,11.89L58.48,1061l-5-3,4-20.88a46,46,0,0,1,8-18.43l3.85-5.24c.7-1,1.44-1.91,2.21-2.83L85.48,994l7.75-8.72a84.56,84.56,0,0,1,18.82-15.79Z"/><path class="cls-2" d="M132.48,959h0a75.42,75.42,0,0,1,1.27,20.17l-.27,3.83,13.1-13.76A119.31,119.31,0,0,1,161.48,956h0l-7.09,2.76a31.13,31.13,0,0,1-21.91.24Z"/><polygon class="cls-2" points="134.46 981.97 77.48 1050 63.48 1067 57.48 1065 92.48 1027 119.48 995 133.86 977.32 134.46 981.97"/><path class="cls-2" d="M70.48,725,106,742a219.85,219.85,0,0,1,27.88,16l26.65,18L143.1,760.91A180.38,180.38,0,0,0,97.48,732h0Z"/><path class="cls-2" d="M72.48,804l36.13,16.53a257,257,0,0,0,47.33,16.3L173.48,841l-17.33,12.81q-5.24,3.87-10.23,8c-4.08,3.41-9.44,7.77-9.44,7.15,0-.29-3-2.88-7.39-6.43A349,349,0,0,1,73.64,805.5Z"/><path class="cls-2" d="M92.48,791l51.86,5.27a139.65,139.65,0,0,0,14.31.73h22a9.12,9.12,0,0,1,6.45,2.67h0a4.28,4.28,0,0,1-.3,6.33l-9,7.4A37.53,37.53,0,0,1,154,822h-1.13a30.32,30.32,0,0,1-15.56-4.29Z"/><path class="cls-3" d="M466.49,826.29l5.87,18.17a129.67,129.67,0,0,1,3.53,13.27l3.64,17.36a308.85,308.85,0,0,1,6.3,76.61l-.35,8.3-4,81-1,32h7l2-71,2.12-54.38a317.81,317.81,0,0,0-1.47-45.13l-2.54-24.29a138,138,0,0,0-9.95-38.93h0A214.79,214.79,0,0,1,463.48,789h0l-4,10,1.88,8.46Q463.48,817,466.49,826.29Z"/><path class="cls-4" d="M216.35,920.72c.09.85.21,1.7.37,2.54l2.62,14a3.74,3.74,0,0,0,.56,1.39h0a6.12,6.12,0,0,0,4.4,2.67l1.28.15A31.58,31.58,0,0,1,235,944l4.5,2,53,19h10l-26-9-25-9-9.16-2.62a4.17,4.17,0,0,1-2.59-5.88l4.75-9.5-10.55,2.44a12.78,12.78,0,0,1-4.93.15l-1.2-.2a4.39,4.39,0,0,1-3.28-2.54l-2.3-5.18c-.49-1.11-.94-2.24-1.34-3.39L214.48,902Z"/><path class="cls-5" d="M536.48,735l18.25,137.31A544,544,0,0,1,559.48,944h0l107-13,11.94-73.37a554.94,554.94,0,0,0,6.74-111.94L684.48,729h-4l-1,32-132,14-7-41Z"/><path class="cls-4" d="M540.48,734l36.81-5.81a13.67,13.67,0,0,1,2.39-.18l84.8,1v2H580.3c-.55,0-1.09,0-1.64.06Z"/><path class="cls-5" d="M587.48,613l3,46,7,64,1,5,1-42,2-15,4.17,29.23a218.59,218.59,0,0,0,5.15,25.23l.68,2.54,6-6-3-22-9-43L603,641.61q-2.52-15.6-3.57-31.38L598.48,596Z"/><path class="cls-2" d="M737.48,692l4-48,3-59s9,43,9,44-3,29-3,29l-10,41Z"/><path class="cls-4" d="M618.48,452l31,36-13,10,3.46,3.46a31.38,31.38,0,0,1,4.44,5.58l3.1,5-1.39-5.56a14.43,14.43,0,0,0-2-4.54l-.35-.52a4.3,4.3,0,0,1,1-5.82h0a23.2,23.2,0,0,1,10.63-4.4l1.12-.16-5.21-6.69a45.8,45.8,0,0,0-3.86-4.38l-9.3-9.3a65.47,65.47,0,0,1-8.26-10.08L627.48,457h0A59.81,59.81,0,0,1,656,475.45l2.54,3q3.93,4.57,8.19,8.84l4.08,4.09a121.59,121.59,0,0,0,16.55,13.83l1.77,1.24A54.17,54.17,0,0,0,716.48,516h0l-12.24-10.71a48,48,0,0,0-8.12-5.74l-7.88-4.44A133.82,133.82,0,0,1,653.48,467h0l-3-3,28.13,12.41A102.78,102.78,0,0,1,690,482.3l.31.19a117.38,117.38,0,0,0,30.18,12.77h0A120.2,120.2,0,0,1,747.19,506l12.41,6.81A93.5,93.5,0,0,1,770.84,520h0a68.2,68.2,0,0,1,24.83,36.44l.9,3.26c.61,2.19,1.13,4.39,1.58,6.62l5,24.79a137.27,137.27,0,0,0,3.43,13.56L816.48,637l-2.59-41.37a112.16,112.16,0,0,0-1.59-13.17l-5.94-33a45.5,45.5,0,0,0-8.18-18.95h0a79.3,79.3,0,0,0-26.6-22.92l-8.68-4.62a85.46,85.46,0,0,0-15.47-6.36L735.48,493l-34-12-23-9-27.3-11.3c-1.13-.46-2.28-.9-3.44-1.3l-19.44-6.73a18.85,18.85,0,0,0-9.82-.67Z"/><path class="cls-4" d="M714.48,796l10-2,22-4-3,4-5.69,1a29.66,29.66,0,0,0-22.32,18.42l-1,2.55,6.83-.68a53.31,53.31,0,0,0,6.28-1L740,811.55a47,47,0,0,1,5-.83L760.48,809l-4,10-12,21-2,2h-20l-7-1,2-6h0a43.26,43.26,0,0,0,19.65-9.08l2.35-1.92,9-7-7,1-9.39,1.44a47.71,47.71,0,0,1-7.27.56h-6.34a6.77,6.77,0,0,0-5.42,6.08v0a41,41,0,0,1-3.38,13.23L708.48,842l-8-1,5.13-12.82q.87-2.17,1.61-4.41l3.09-9.26a87.67,87.67,0,0,0,3.3-13.28Z"/><path class="cls-2" d="M755.48,809l3.86-10.48a107.63,107.63,0,0,0,4.81-17.45l1.79-9.52a105.88,105.88,0,0,0,1.52-27.3l-1-13.25-2-27,4,24.68a108.53,108.53,0,0,1,1.29,12.72l.27,6.71a106.78,106.78,0,0,1-1.28,21.65L766.12,786q-.64,4-1.67,7.94l-4,15.07Z"/><path class="cls-5" d="M772,839.07l5.14-31.41a386.35,386.35,0,0,0,4.51-41.57l1.66-30.78a284.19,284.19,0,0,0-1.07-44.53l-.64-6.2a49.62,49.62,0,0,1,2.28-20.67h0a31.08,31.08,0,0,1,13.5-16.82l1.32-.8a2.52,2.52,0,0,1,3.82,2.16v13.26a2.22,2.22,0,0,1-.07.57l-6.89,29.53a2.5,2.5,0,0,0-.06.38c-.17,2.47-2,27.86-2,28.81s9.44-22.25,12.23-29.11a13.17,13.17,0,0,1,2.08-3.47l4.82-5.77a2.52,2.52,0,0,1,4.32,2.44l-1.7,4.88a46.87,46.87,0,0,0-2.32,10.32l-2.41,22.54-.06.34L809,728.94a1.29,1.29,0,0,0,2.28,1.1l6.85-8.95a28.09,28.09,0,0,1,5.47-5.42L827.1,713a1.34,1.34,0,0,1,1.95,1.75l-14.19,23.89a2.51,2.51,0,0,0,1,3.54l2.45,1.23a2.56,2.56,0,0,0,2.26,0L835,736.25a2.52,2.52,0,0,1,3.49,1.37l8,21.38,12.78,40.32a2.55,2.55,0,0,1,0,1.37L857,810a2.52,2.52,0,0,1-2.59,1.91l-23.55-1.34a43,43,0,0,0-18.1,2.86h0a28.41,28.41,0,0,0-14.27,12.18l-1.94,3.34-.11.16-8.19,11.83a2.53,2.53,0,0,1-2.07,1.09H774.45A2.52,2.52,0,0,1,772,839.07Z"/><path class="cls-5" d="M824.48,913l15.1,9.67a141,141,0,0,1,18.61,14.21h0a119.33,119.33,0,0,1,21.07,25.17h0a15.46,15.46,0,0,1,1.83,4.16L885.48,982l.92-21.26a4.46,4.46,0,0,0-1-3.07l-5.2-6.13a60.92,60.92,0,0,1-7.93-12L864.48,924l-5-8,1-4,10,20,6.65,12.57a33.39,33.39,0,0,0,5.89,8l1.46,1.46-5-13.29a30.63,30.63,0,0,1-1.49-5.56l-.69-4.15a12.27,12.27,0,0,1,2.12-9.13l.13-.18a8.78,8.78,0,0,0,1.59-6l-1.36-13.61a9.91,9.91,0,0,0-2.34-5.47l-1.16-1.35a9.41,9.41,0,0,0-7.13-3.28h-1.88a9.61,9.61,0,0,0-5.16,1.5l-4.7,3a4.81,4.81,0,0,0-1.54,6.52l1.64,2.73a8.29,8.29,0,0,1,.76,6.87l-.3.9a9.54,9.54,0,0,1-1.45,2.75h0a6.85,6.85,0,0,1-5.48,2.74h-.94a17.66,17.66,0,0,1-5.15-.77L834.48,915Z"/><path class="cls-5" d="M824.79,917.77l20.58,12.16.21.15,14.82,12.85.14.15,12.59,14.52a1.4,1.4,0,0,1,.35.93v.2a1.42,1.42,0,0,1-2.39,1l-12.5-11.67a1.08,1.08,0,0,0-.24-.18h0a1.42,1.42,0,0,0-2,2l6,9.92a1.55,1.55,0,0,0,.31.36l5.42,4.52a1.45,1.45,0,0,0,.91.33h3.72a2.29,2.29,0,0,1,1.38.46l1.34,1a2.72,2.72,0,0,1,.63,3.67h0a2,2,0,0,1-1.62.87h-2.58a3.34,3.34,0,0,1-2.36-1h0a1.42,1.42,0,0,0-2.32,1.55l4.3,10.43,8.91,19.8a1.19,1.19,0,0,1,.11.42l.19,1.67a1.42,1.42,0,0,1-2.66.85L870.5,991l0-.08-10.7-22.37a1.41,1.41,0,0,0-.91-.76L848.58,965l-.2-.07-1.91-.85a1.42,1.42,0,0,0-1.58,2.3l10.53,10.53.11.12,11.9,14.88.09.13,10,15.93,3,5-13-15-19.76-23.71a1.4,1.4,0,0,0-.6-.42L836.58,970l-.2-.09-17.9-10-13.71-7.83a1.48,1.48,0,0,1-.48-.45l-1.43-2.14a1.43,1.43,0,0,1-.16-1.24l.17-.53a1.43,1.43,0,0,1,2.17-.71l25.14,17.69a1.44,1.44,0,0,0,.66.25l4.61.51a1.42,1.42,0,0,0,1.17-2.41L834.48,961c-1-1-22.31-13-23.91-14a.94.94,0,0,1-.18-.12l-4.38-3.5a1.41,1.41,0,0,1-.53-1.11v-1.64a1.41,1.41,0,0,1,1.65-1.4l4,.66a1.33,1.33,0,0,1,.63.28l12.63,9.71a.76.76,0,0,0,.19.12L837.4,957l.16.07,12.92,5,7.65,2.55a1.42,1.42,0,0,0,1.8-.9l.32-1a1.43,1.43,0,0,0-.18-1.27l-6.49-9.27a1.37,1.37,0,0,0-.23-.25L837.48,938l-12.71-11.73a1.42,1.42,0,0,1-.4-.65l-1.74-6.09a1.39,1.39,0,0,1,.1-1l.07-.15A1.43,1.43,0,0,1,824.79,917.77Z"/><path class="cls-5" d="M806.48,968l20,33,12.11,16.85a100.08,100.08,0,0,1,15.6,33.21h0a16.55,16.55,0,0,1-.43,9.75l-3.28,9.19,2.66-.73a9.8,9.8,0,0,0,7.12-10.83l-.28-1.94a94.81,94.81,0,0,0-11.14-32.93l-5.36-9.57-12-19Z"/><path class="cls-4" d="M467.54,809l44.94-65,34.81-55.7a186.22,186.22,0,0,0,9.48-17.1l11.77-24.08q4.94-10.11,10.71-19.8l18.27-30.65a147,147,0,0,0,11.66-24.42h0a9,9,0,0,0-3-10.28l-11.76-9q-3.95-3-8-5.8L565.48,533l32-13.22a169.19,169.19,0,0,0,26.76-13.95L636.48,498l8,9-29.63,12.43c-.92.38-1.84.74-2.77,1.07L582.48,531l11.7,9.51a106.72,106.72,0,0,1,8.22,7.41l8,8a19.52,19.52,0,0,1,5,19h0a93.41,93.41,0,0,1-11.95,26.17l-16.23,24.59a266.63,266.63,0,0,0-15.86,27.47l-7.56,15.13a264.92,264.92,0,0,1-16.42,28.3L512.48,749l-43.72,64.63Z"/><path class="cls-4" d="M283.48,438l-32.34,80.84a6.43,6.43,0,0,0,1.67,7.16h0A44.18,44.18,0,0,0,268,534.92L291.48,543l25,8,21,13L319,593.11a8.2,8.2,0,0,1-1.33,1.61l-22.61,21a8.85,8.85,0,0,0-1.23,11.53l29.32,42.1A181.59,181.59,0,0,0,334.51,684l42.23,49.14A191.37,191.37,0,0,0,391,748.06l65.82,61.6a36.51,36.51,0,0,1,7.7,10.3c1.46,2.89,2.51,5.15.61,2-3-5-59.76-55.85-79.2-73.22a123.13,123.13,0,0,1-12.12-12.48L332.9,687.79q-7.42-8.79-14-18.21l-29.15-41.53A8.37,8.37,0,0,1,291,617l20.16-18.27a53.89,53.89,0,0,0,10.63-13.23L333.48,565l-13.12-8.74a42,42,0,0,0-10.47-5L290.48,545l-24.4-8.39a38.89,38.89,0,0,1-13.55-8l-2.86-2.6a6.68,6.68,0,0,1-2.19-5h0a9.71,9.71,0,0,1,.81-3.91L285.48,431Z"/><path class="cls-6" d="M543.48,406l6.23,32.93a32.73,32.73,0,0,1,.49,8.21L547.48,487l-1.81,36.13A23.37,23.37,0,0,1,544,530.6L535.48,552l-5-31-14,50-27,97-23,102-7,29-33-111-39-114-30.54-83a33.29,33.29,0,0,1-1.88-8.18L349,421.7a51.89,51.89,0,0,1-.08-9.41L350.48,393l18.86,38.49A52.68,52.68,0,0,0,387,451.84l5.91,4a65.82,65.82,0,0,0,16.25,8l12.6,4.2a41.33,41.33,0,0,1,5.28,2.19l1,.51a27.08,27.08,0,0,1,10.4,9.18l12,18,4,10v1.8a2.21,2.21,0,0,1-2.2,2.2h-.8l2,11,6.07-4.34a10.68,10.68,0,0,1,2-1.11l2.05-.88a21.93,21.93,0,0,0,6.9-4.67l12-12,11.76-10.92a21.2,21.2,0,0,1,5-3.45l1.08-.54a21.72,21.72,0,0,0,7.12-5.72L521.48,462l12.44-23.1a30.17,30.17,0,0,0,2.46-6.07l5.1-17.83Z"/><path class="cls-6" d="M694.48,1029l21.38,29.75a46.44,46.44,0,0,0,3.5,4.29l10.12,11h79a18.74,18.74,0,0,0,10.81-13.68l.51-2.73a24.68,24.68,0,0,0,.29-7.23L817.48,1026l-.57-5.69a78.23,78.23,0,0,0-7.86-27.17L804.48,984l-3-5-4,6,6.74,19.47c1.5,4.35,2.82,8.77,3.93,13.24l2.94,11.74a17.38,17.38,0,0,1-4.57,16.51h0a17.66,17.66,0,0,1-4.62,3.33l-14.28,7.14c-.76.38-1.5.8-2.22,1.25l-12,7.59a22.5,22.5,0,0,1-12.89,3.46l-12.58-.48a27.12,27.12,0,0,1-12.08-3.38l-.13-.07a26.79,26.79,0,0,1-5.85-4.42l-12.74-12.74q-1.64-1.64-3.14-3.41l-5.74-6.78a72.47,72.47,0,0,1-6.76-9.45h0Z"/><path class="cls-3" d="M803.5,1075h5.07a18.76,18.76,0,0,0,10.81-13.68l.51-2.73a25,25,0,0,0,.29-7.23L817.57,1027l-.57-5.69a78.23,78.23,0,0,0-7.86-27.17L804.57,985l-3-5-4,6,6.73,19.47q2.26,6.53,3.94,13.24l2.94,11.74a17.4,17.4,0,0,1-4.57,16.51h0a17.88,17.88,0,0,1-4.63,3.33l-14.27,7.14c-.76.38-1.5.8-2.22,1.25l-12,7.59a22.48,22.48,0,0,1-12.89,3.46l-12.57-.48a27.09,27.09,0,0,1-12.08-3.38l-.13-.07a26.33,26.33,0,0,1-5.85-4.42l-12.74-12.74q-1.65-1.64-3.15-3.41l-5.73-6.78a71.54,71.54,0,0,1-6.76-9.45h0l-7,1L716,1059.75a44.86,44.86,0,0,0,3.5,4.29l10.12,11h62l10-10.06c.62-.63,1.21-1.28,1.76-2l6.31-7.7a35.35,35.35,0,0,0,3.32-4.83l.32-.57a8.34,8.34,0,0,0,.22-7.88h0a8.44,8.44,0,0,1,4,8.74l0,.18a16.49,16.49,0,0,1-4.57,8.73l-4.42,4.42a4.76,4.76,0,0,0-1.25,2.2l-.12.5a1.06,1.06,0,0,0,1.5,1.2l4.41-2.21a6.41,6.41,0,0,0,2.47-2.18l3.06-4.58-2.69,5.38a12,12,0,0,1-3.68,4.34Z"/><path class="cls-7" d="M704.48,1030l15,8,2.71,1.36a21.37,21.37,0,0,0,15.15,1.5l.72-.2a18.25,18.25,0,0,0,4.57-2l7.85-4.71,14-8,13-10,9-10,7-15,4-5,7.7,22.34,5.56,22.07a12.28,12.28,0,0,1-.22,6.72h0a22.37,22.37,0,0,1-10.28,12.64l-11.68,6.62c-.72.41-1.43.83-2.13,1.28l-8.67,5.58a29.9,29.9,0,0,1-9.23,3.92l-4.55,1.07a36.82,36.82,0,0,1-12,.79h0a44.55,44.55,0,0,1-21-7.74h0a44.69,44.69,0,0,1-7-6.06l-12.84-13.6a26.14,26.14,0,0,1-2.14-2.56L701.48,1029Z"/><path class="cls-6" d="M306.48,965h42l-15,10-19,15.73a23.21,23.21,0,0,0-6.17,7.9l-11.8,24.79a36.83,36.83,0,0,0-2.16,26l3.18,11.13a10.15,10.15,0,0,0,13.23,6.76h0a13.92,13.92,0,0,0,1.48-.66l18.28-9.62,16.15-5.38c1.23-.41,2.45-.87,3.64-1.38l17.21-7.24-3,15-4,11-4,6h-125l1.7-16.14a28.17,28.17,0,0,1,1.17-5.6l6.6-20.6c.35-1.1.75-2.2,1.2-3.28l9.09-22A48.23,48.23,0,0,1,257,997.28l5.34-7.21a66.21,66.21,0,0,1,20.09-18l1.92-1.11a39.91,39.91,0,0,1,11-4.33l3.28-.76A35,35,0,0,1,306.48,965Z"/><path class="cls-4" d="M244.93,1046.49l44.55-3.49h0l5,18h0l-34.59,1.69a7.78,7.78,0,0,0-7.32,6.66l-.09.65h0l-20.53.5h0l1.59-12.84a13.42,13.42,0,0,1,1.7-5.06h0A12.31,12.31,0,0,1,244.93,1046.49Z"/><path class="cls-8" d="M248.7,1038.19h0a52.9,52.9,0,0,1,9.69-1.48l28.08-1.65c.67,0,1.35-.06,2-.06h3l-1,7-22.83,2.85c-.78.1-1.56.18-2.35.23L238.48,1047l.06-.15A15,15,0,0,1,248.7,1038.19Z"/><path class="cls-3" d="M299.63,1075h57l4-6,4-11,3-15-17.21,7.24c-1.19.51-2.41,1-3.64,1.38L330.63,1057l-18.29,9.62a9.7,9.7,0,0,1-1.18.54,1.8,1.8,0,0,1-.61.13h0a18.61,18.61,0,0,1-10.94-3l-.28-.19Z"/><path class="cls-3" d="M301.48,1068l1,2,26,1h7a18.43,18.43,0,0,1,12.07-11.79l2.72-.84a1.49,1.49,0,0,1,1.77.76h0a9,9,0,0,1,.74,6l-1.3,5.87h7l4-8.09a17.06,17.06,0,0,0,1.26-3.39l1.67-6.37c.11-.43.21-.86.3-1.3l1.77-8.85-23.12,8a34,34,0,0,0-5.54,2.5l-13.34,7.5L313,1066.47a18.17,18.17,0,0,1-7.3,1.53h0a5.65,5.65,0,0,1-3.81-1.48l-.81-.74Z"/><path class="cls-9" d="M350.48,433l14.08,42.23a103,103,0,0,1,4.23,17.92l2,14a148.62,148.62,0,0,0,5.27,23.29l1.43,4.57-13.41-38.56a129.82,129.82,0,0,1-4.27-15.14L356.48,466l1.23,10.65a141.24,141.24,0,0,0,6.81,30l5,14.39,18.22,46.85q2.78,7.14,4.91,14.52L403.48,620l-15-43-19-50-8.15-23a106.78,106.78,0,0,1-4.4-16.41L353.48,469Z"/><path class="cls-3" d="M403.42,465l-19.07,8.18a9,9,0,0,0-3.22,2.34l-3.7,4.23a7.3,7.3,0,0,0-1.79,5.19l1.74,31.29a25,25,0,0,0,.44,3.46l.74,3.69a60.24,60.24,0,0,1,.7,19.32h0a10.4,10.4,0,0,0,.62,5l7.51,19.3s0,.08,0,.13c.25.89,3.24,11.42,3.63,10.15.29-.92-3-16.09-5-25.32a82.91,82.91,0,0,1-1.87-14.37l-.45-10.92c-.16-3.81-.14-7.63.08-11.44l.31-5.64a1.47,1.47,0,0,1,2.84-.47l1.44,3.61a1.47,1.47,0,0,0,.24.4L398.48,525l7,9,4,5-1.19-5.34a16.11,16.11,0,0,0-3.15-6.59l-6.84-8.55a41.86,41.86,0,0,1-4.84-7.56l-2.39-4.78a1.48,1.48,0,0,1,1.78-2.06l2.63.88,11,15,1.72,2.15A23.89,23.89,0,0,0,424.48,531h0s-12-9-12-10-11.62-15.3-12.89-16.86a1.23,1.23,0,0,0-.26-.25L391.48,498l-8.56-6a1.47,1.47,0,0,1-.2-2.25L384.5,488a1.49,1.49,0,0,1,2-.06l3.57,3.13A14.4,14.4,0,0,0,398,494.5h0a34.9,34.9,0,0,1,8.78,2.14l4.64,1.78a32,32,0,0,1,7.63,4.22h0a1.52,1.52,0,0,0,1.07.29l3.71-.47a30.45,30.45,0,0,1,7.39,0l4.07.51a1.47,1.47,0,0,0,.47,0l4.77-.95L427,499.31a26.72,26.72,0,0,0-3.09-.44l-.26,0A47.45,47.45,0,0,1,404.55,493l-.07,0-6.67-4.17c-.89-.55-1.8-1.06-2.74-1.53l-3.53-1.77a1.47,1.47,0,0,1-.77-1.68l.61-2.45a1.45,1.45,0,0,1,.39-.69h0a10.33,10.33,0,0,1,4-2.48h0a3.05,3.05,0,0,0,1.23-.75l1.43-1.43.09-.09c.55-.45,6-5,6-6a15.4,15.4,0,0,1,.91-3.12,1.48,1.48,0,0,0-1.85-1.9h0Z"/><path class="cls-3" d="M389.85,482.73a20.24,20.24,0,0,0,2-1.86h0a10.33,10.33,0,0,1,4-2.48h0a3.1,3.1,0,0,0,1.23-.76l1.43-1.43.09-.08c.54-.46,5.95-5,5.95-6a15.62,15.62,0,0,1,.91-3.13,1.47,1.47,0,0,0-1.85-1.89h0l-.11,0L382.9,474a1.67,1.67,0,0,0-.65.47l-4.77,5.46a7.21,7.21,0,0,0-1.79,5.19l1.74,31.29a23.55,23.55,0,0,0,.44,3.46l.73,3.69a60.24,60.24,0,0,1,.7,19.32h0a10.4,10.4,0,0,0,.63,5l7.5,19.3a.56.56,0,0,1,0,.12c.26.9,3.24,11.43,3.64,10.16.29-.92-3-16.1-5-25.32a82,82,0,0,1-1.87-14.37l-.46-10.92c-.16-3.81-.13-7.63.08-11.44l.31-5.64L382.48,494h0a7.31,7.31,0,0,1,1.91-6.92l1.09-1.08Z"/><path class="cls-4" d="M393.48,582l15,48,23,72,23,75,5,22,7-30-20-70-20-59-15.24-42.14q-1.77-4.86-3.13-9.84l-.63-2.26a136.59,136.59,0,0,0-18.67-40.43L382.48,536Z"/><path class="cls-9" d="M547.48,418l1,30,2,27-5,8-2,5-.82-22a89.67,89.67,0,0,1,.19-10l1.53-20.7a25.36,25.36,0,0,1,.34-2.62Z"/><path class="cls-9" d="M512.89,486h0a25.62,25.62,0,0,1,4.91,2.46l8,5.16a30.91,30.91,0,0,1,6.51,5.62l2.66,3a20.15,20.15,0,0,1,2.55,3.66l2.67,4.89a15.81,15.81,0,0,1,1.88,8.84l-.69,8.68A49.69,49.69,0,0,1,534.48,550h0l-1.65-19a17.51,17.51,0,0,0-2.43-7.5h0a1,1,0,0,0-1.8,0l-6.15,10.94a13.07,13.07,0,0,1-5.57,5.3l-.64.32a10.82,10.82,0,0,1-11-.82l-2.57-1.8a6.19,6.19,0,0,1-2.58-4.09L498.48,524l-.49-3.88a3.28,3.28,0,0,1,3.62-3.66l.75.08a18.23,18.23,0,0,1,7.63,2.65l1.35.85a6.27,6.27,0,0,0,6.37.16l5.77-3.2,1.17-.58a8.74,8.74,0,0,0,4.83-7.82h0a3.86,3.86,0,0,0-1.13-2.73h0a5.3,5.3,0,0,0-4.49-1.5l-4.2.6-.36.07L510.59,507l-.23,0h-4.88l8.93-4,.14,0,5.56-1.59a1,1,0,0,0,.58-1.57l-.83-1.24a1,1,0,0,0-1.06-.44l-3.27.65a5,5,0,0,0-1.93.84L507.48,504l-6.67,5a8.48,8.48,0,0,0-2.19,2.43L497.05,514a9.18,9.18,0,0,1-1.39,1.78l-.05,0a6.16,6.16,0,0,1-7.09,1.15h0l-.07,0h0a8.89,8.89,0,0,1-4.24-8.73l0-.33a11.34,11.34,0,0,1,1.1-3.65l1.29-2.58a6.25,6.25,0,0,1,2.49-2.63l5.36-3.06,6.94-4a.41.41,0,0,0,.11-.07l2.21-1.65a1,1,0,0,0-.37-1.84l-1.52-.38a1,1,0,0,0-.71.08L495.53,491l-.1,0-7.95,3,5.22-4.48a12.1,12.1,0,0,1,4-2.26l3.78-1.26,1.44-.41A17.52,17.52,0,0,1,512.89,486Z"/><path class="cls-3" d="M454,522.67a1,1,0,0,0-.5,1l2,25.36,4,32,7,46h0a595.77,595.77,0,0,1,6.79,78.45l.21,10.51V716l-2,32,2.74-21.42a209.2,209.2,0,0,0,1.52-35.29l-1.23-29.58c0-.47-.05-1-.1-1.42L471.48,630a.13.13,0,0,0,0-.06l-5-32-3-25.59a1,1,0,0,1,.19-.74l10.51-14.33.48-.7,15.41-24.22a.45.45,0,0,0-.74-.52L478.48,546l-13.73,19.21a1,1,0,0,1-1.85-.33l-1.85-6.79a38,38,0,0,1-.9-4.24l-1.53-10a1,1,0,0,1,.72-1.15l7.34-2.26a1,1,0,0,0-.2-2l-3.49-.39a1.06,1.06,0,0,1-.78-.5l-2.63-4.38a1.08,1.08,0,0,0-.26-.3l-2.07-1.55a3.53,3.53,0,0,1-1.34-3.5h0a5.58,5.58,0,0,1,3.21-4l6.3-2.8.11-.06,4.23-2.54a1,1,0,0,0,.45-1.22l-.4-1.22a1,1,0,0,0-1.32-.66l-4.9,1.63-.21.1Z"/><path class="cls-10" d="M445.64,673.47,445,674a6.7,6.7,0,0,0-2.51,5.23h0a6.67,6.67,0,0,0,2,4.74l2.07,2.08a6.75,6.75,0,0,0,4.75,2h.44a6.73,6.73,0,0,0,4.74-2l1.07-1.08a6.68,6.68,0,0,0,2-4.74v-.44a6.68,6.68,0,0,0-2-4.74L456.44,674a6.73,6.73,0,0,0-4.74-2h-1.87A6.72,6.72,0,0,0,445.64,673.47Z"/><path class="cls-3" d="M447.94,675.4h0a4.53,4.53,0,0,0-2.46,4v.36a4.52,4.52,0,0,0,2,3.76l1,.68A4.36,4.36,0,0,0,451,685h.94a4.46,4.46,0,0,0,4.23-3.09l.13-.39a4.6,4.6,0,0,0,.23-1.43v-1a4.54,4.54,0,0,0-2-3.76l-.32-.22a4.44,4.44,0,0,0-3.89-.52l-1.75.59A6.07,6.07,0,0,0,447.94,675.4Z"/><circle cx="448.98" cy="678.5" r="0.5"/><circle cx="451.98" cy="678.5" r="0.5"/><circle cx="451.98" cy="681.5" r="0.5"/><circle cx="448.98" cy="681.5" r="0.5"/><path class="cls-9" d="M403.48,477h12.87l.25,0,6.5.81a2,2,0,0,1,1.71,1.52l0,.14a2,2,0,0,1-2,2.51h-1.52l-8.58-1a1.78,1.78,0,0,1-.6-.16Z"/><path class="cls-8" d="M409.48,478h7.45a5.49,5.49,0,0,1,1.08.11l4,.8a4.92,4.92,0,0,1,.85.26l.59.26h0a4.4,4.4,0,0,1-2.15.57h-3.14a7.49,7.49,0,0,1-1.41-.14l-4-.81a3.34,3.34,0,0,1-.52-.14Z"/><path class="cls-8" d="M493.81,498.67l-3.16,3.16a4,4,0,0,0-1.17,2.82v1.7a4,4,0,0,0,1.17,2.82l.23.23a4,4,0,0,0,3.79,1.05l1.38-.34a3.85,3.85,0,0,0,.82-.31l2.82-1.41a4,4,0,0,0,1.34-1.07l2.29-2.87a4,4,0,0,0,.79-3.27l-.31-1.56a4,4,0,0,0-1.7-2.54h0a4,4,0,0,0-3.47-.46l-3.26,1.08A4,4,0,0,0,493.81,498.67Z"/><path class="cls-3" d="M497.87,498.64l-2.36.95a3.28,3.28,0,0,0-1.6,1.36l-1.65,2.75a3.26,3.26,0,0,0-.3,2.74h0a3.31,3.31,0,0,0,2.08,2.08l.93.31a3.38,3.38,0,0,0,1,.17h.1a3.3,3.3,0,0,0,2.33-1l1-1,2-2a3.26,3.26,0,0,0,1-2.32v-.88A3.29,3.29,0,0,0,501,499l-.09-.06A3.3,3.3,0,0,0,497.87,498.64Z"/><circle cx="497.98" cy="504.5" r="0.5"/><circle cx="497.98" cy="503.5" r="0.5"/><circle cx="496.98" cy="505.5" r="0.5"/><circle cx="496.98" cy="504.5" r="0.5"/><path class="cls-7" d="M350.32,965.09l-11.22,6a18.35,18.35,0,0,0-3,2L321.73,985a27.44,27.44,0,0,0-2.37,2.21l-6,6.35a76.62,76.62,0,0,0-16.29,26.3l-1.74,4.77a14.79,14.79,0,0,0-.55,1.83l-1.47,6.18a18.53,18.53,0,0,0-.35,6.84l1.22,9.17a20.49,20.49,0,0,0,1.18,4.62l2,5.23a16.66,16.66,0,0,0,7.27,8.47h0a5.59,5.59,0,0,0,3.94.6h0a37.92,37.92,0,0,0,12.81-5.47l4.27-2.85a20.26,20.26,0,0,1,3.9-2l18.94-7.21,16-6.23a11.31,11.31,0,0,1,4.11-.77h5.48a33,33,0,0,0,18.9-6l.92-.64q.57-.4,1.11-.84l20.25-16.39a3.41,3.41,0,0,0,.39-.37l13.82-14.8,3-3,26.77-26a62.61,62.61,0,0,0,11.9-15.95l5.78-11c.37-.69.7-1.4,1-2.12l7.87-18.37a25,25,0,0,0,1.13-3.18l.33-1.14a3.85,3.85,0,0,1,5.24-2.47l11.81,5.17.32.13,10.57,3.52a3.85,3.85,0,0,0,2.53,0l8.94-3.25a3.89,3.89,0,0,0,1.4-.89l4-4a4,4,0,0,1,1-.72l2.92-1.46a3.76,3.76,0,0,1,1.09-.35l5-.84a4.2,4.2,0,0,0,.79-.22h0a3.85,3.85,0,0,0,1.67-5.85l-11-14.88a2.11,2.11,0,0,0-.19-.23L520.48,882l-3.22-3.86a3.85,3.85,0,0,1-.31-4.5l3.53-5.64,5.56-9.26a3.78,3.78,0,0,0,.52-1.6l.73-7.27a7.66,7.66,0,0,0-.51-3.61l-2.76-6.9a5,5,0,0,0-1.73-2.21l-3.11-2.22a7.69,7.69,0,0,0-6-1.28l-2.06.41a14.23,14.23,0,0,0-7.85,4.51L490.48,853l-10.91,11.82a3.85,3.85,0,0,1-2.7,1.23l-29.16.94a3.73,3.73,0,0,1-.47,0l-10.62-1-.28,0-5-.84a3.81,3.81,0,0,0-1.68.1l-.13,0a20,20,0,0,0-10,6.58l-4,4.88a3.85,3.85,0,0,1-2.65,1.4l-3.79.31a19.83,19.83,0,0,0-11.53,4.94h0a20.43,20.43,0,0,0-5.78,8.76l-2.64,7.93a27.65,27.65,0,0,1-1.55,3.73L382.48,914l-6.26,12.52a25.22,25.22,0,0,1-1.66,2.85l-8.09,12.14a27.89,27.89,0,0,0-1.79,3.09l-6,12a18.38,18.38,0,0,1-6.26,7.09l-1.78,1.19Z"/><path class="cls-7" d="M517.48,878a13.33,13.33,0,0,1,2-8.07l1.21-1.93,3.75-6.24a19.71,19.71,0,0,0,2.69-8.12l.25-2.49a12.93,12.93,0,0,0-.87-6.09l-2.28-5.7a5,5,0,0,0-1.73-2.21l-3.1-2.22a7.72,7.72,0,0,0-6-1.28l-2.06.41a14.23,14.23,0,0,0-7.85,4.51L490.67,853l-8.36,9a20.64,20.64,0,0,1-5.9,4.47l-.93.48,16.74-1a1.2,1.2,0,0,0,.49-.14h0a10.2,10.2,0,0,1,7.76-.55l3.23,1.08a21.27,21.27,0,0,1,8.34,5.15l.74.74a18.58,18.58,0,0,1,1.32,1.48l3.38,4.22Z"/><path class="cls-11" d="M412,1018.8l13.82-14.8,3-3,26.77-26a62.88,62.88,0,0,0,11.91-15.95l5.77-11c.37-.69.7-1.4,1-2.12l7.87-18.37a23.55,23.55,0,0,0,1.13-3.18l.33-1.14c.64-2.24,7.19-3.73,5.24-2.47-.37.24-16.37-6.76-16.37-6.76l-16-5.33a29.91,29.91,0,0,1-3.88-1.61L450.48,906l-2-1h0a5.84,5.84,0,0,1-3.73,5.45l-9.32,3.62a21.5,21.5,0,0,1-10.23,1.34l-2.85-.31a2.33,2.33,0,0,0-1.6.39L415.48,919H440a5.79,5.79,0,0,0,.92-.07l6.52-.93a14.19,14.19,0,0,1,12,4h0a6.56,6.56,0,0,1,1.5,7l-.44,1.2a10.43,10.43,0,0,1-3.5,4.66l-7.23,5.42a34,34,0,0,1-14.13,6.22L430,947.52a11.16,11.16,0,0,0-4.63,2h0a9.21,9.21,0,0,0-2.9,3.64l-7,15.8-1.2,2.41a35.91,35.91,0,0,0-3.8,16.08V995Z"/><path class="cls-12" d="M444,922.74l1.7-.85a10.78,10.78,0,0,1,3.76-1.09l8-.8-1.15,1.53A7.2,7.2,0,0,0,455,927h0a14,14,0,0,0,2.15,5.46l.34.5-10,3.64a6,6,0,0,1-2.06.36h0a4.68,4.68,0,0,1-3.31-1.37l-.81-.8a6.28,6.28,0,0,1-1.82-4.41h0a8.85,8.85,0,0,1,3.53-7.07h0A6.27,6.27,0,0,1,444,922.74Z"/><path class="cls-4" d="M412.58,924l-2.28,1.14c-1.21.61-2.4,1.27-3.54,2l-4.38,2.73a68.66,68.66,0,0,0-17.2,15.31L376.48,956l.34-.9a58.57,58.57,0,0,1,26.51-30.47l1.15-.63,6.34-3.73L425.48,915l-6,4-.07.07A27,27,0,0,1,412.58,924Z"/><path class="cls-4" d="M423.48,886l-22.16,9.75a10.28,10.28,0,0,0-4.51,3.87l-2.38,3.75A3,3,0,0,0,397,908h0a6.47,6.47,0,0,0,4.36-1.7l10.15-9.3Z"/><path class="cls-4" d="M404.1,879.35l4-1a9.13,9.13,0,0,1,2.85-.24l1.2.09A55.57,55.57,0,0,0,432.43,876h0l.1,0,5-1-6.77,4.84a1.17,1.17,0,0,1-.51.19l-8.66,1h-7.78a1.08,1.08,0,0,0-1.07,1.26l.27,1.63a3.91,3.91,0,0,1-2.41,4.28h0a5.4,5.4,0,0,1-4.12,0h0a8.79,8.79,0,0,0-9.09,1.33h0a8.48,8.48,0,0,0-2.63,3.85l-1.94,5.84c-.2.57-.41,1.14-.65,1.7l-1.66,3.88a7.75,7.75,0,0,1-3.11,3.56h0a1.08,1.08,0,0,1-1.55-1.36L390.48,896l.68-1.81a30.5,30.5,0,0,1,7-10.87l.32-.32,1.09-1.09A9.64,9.64,0,0,1,404.1,879.35Z"/><path class="cls-4" d="M462.48,877l16.23,5.8a113.41,113.41,0,0,1,22.35,10.86L517.48,904l-5.39.67a4,4,0,0,0-3.33,2.86L507.48,912l-1.59-.79a41.89,41.89,0,0,1-14.22-11.61h0a52.8,52.8,0,0,0-12.18-11.26Z"/><path class="cls-4" d="M437.48,875l4.48-2.24a7.19,7.19,0,0,1,3.22-.76h3.64a12.64,12.64,0,0,1,8.2,3l3.46,3-.89.22a8.28,8.28,0,0,0-4.89,3.45l-.22.33-2.86-2.86a14.69,14.69,0,0,0-7.5-4h0a6.3,6.3,0,0,0-1.3-.13Z"/><path class="cls-12" d="M511.53,907.47l1.42-.71a7.28,7.28,0,0,1,3.24-.76h2.3a8,8,0,0,1,2,.24l1.91.48a7.21,7.21,0,0,1,2.12.9l7,4.38,2.15,1.61a2.45,2.45,0,0,1,.56,3.32h0a9,9,0,0,1-1.7,1.9l-4.43,3.69a3.38,3.38,0,0,1-1.31.66l-2.52.63a1.71,1.71,0,0,1-1.39-.24l-5.26-3.51-.19-.13-5.56-4.16a5.91,5.91,0,0,1-2.35-4.71h0a4.53,4.53,0,0,1,.47-2h0A3.6,3.6,0,0,1,511.53,907.47Z"/><path class="cls-4" d="M464.48,876l29,13,27,17,14.84,8.59a17.87,17.87,0,0,0,9,2.41h0a1.67,1.67,0,0,0,1.57-1.13h0a3.11,3.11,0,0,0-.81-3.23l-14.84-14.1a59.39,59.39,0,0,0-8-6.39l-5-3.34a47.13,47.13,0,0,1-5.15-4L505.48,879h0a37,37,0,0,0-19.29-4.63l-17.71.63h-8Z"/><path class="cls-4" d="M507.48,868h0l1.92,1.68a102,102,0,0,1,11.25,11.52l4.83,5.8,14,17,5,8-13-13-15.56-15.56a54.46,54.46,0,0,0-5.18-4.54l-3.11-2.4a48.88,48.88,0,0,0-15.79-8.09h0a6.14,6.14,0,0,0-2.76-.18l-1.91.32a22.3,22.3,0,0,1-5.41.24L471.48,868l-20-1,24-2h15.45A47.24,47.24,0,0,1,507.48,868Z"/><path class="cls-12" d="M531.14,902h.78a1.56,1.56,0,0,1,1,.36l5.51,4.6.11.09,3.75,3.75a2.86,2.86,0,0,1,.35.43l.88,1.31a1.55,1.55,0,0,1-.6,2.24l-1.86.93a1.52,1.52,0,0,1-1.18.09l-2.1-.7a1.86,1.86,0,0,1-.53-.3L529.52,908l-.08-.07-1.29-1.28a1.58,1.58,0,0,1-.37-1.59l.5-1.48a1.56,1.56,0,0,1,.77-.9l.84-.42A2.83,2.83,0,0,1,531.14,902Z"/><path class="cls-4" d="M416.48,877l5.5-6.11a14.43,14.43,0,0,1,8.68-4.63h0a13.45,13.45,0,0,1,3.64,0l11,1.37a52.47,52.47,0,0,0,6.39.42l2.58,0-13.91,1.72a9.24,9.24,0,0,1-3.7-.28h0a15.73,15.73,0,0,0-10.18.52h0Z"/><path class="cls-13" d="M661.19,810.25l-.12.07a18.91,18.91,0,0,0-7.11,7.36h0a46.26,46.26,0,0,0-5.34,17.73l-.33,3.71A31.33,31.33,0,0,0,651.47,856h0a18.9,18.9,0,0,0,9.15,8.78l2.43,1.1a30.74,30.74,0,0,0,23.19.81h0A18.88,18.88,0,0,0,696.78,857h0a47.14,47.14,0,0,0,4.28-25.25l-.87-8.14a18.94,18.94,0,0,0-5.43-11.35h0A18.93,18.93,0,0,0,684.5,807l-4.48-.74a19,19,0,0,0-3.11-.26h0A31.24,31.24,0,0,0,661.19,810.25Z"/><path class="cls-14" d="M661.76,813.72l-2,2a18.83,18.83,0,0,0-4.64,7.66l-2.29,7.35a18.68,18.68,0,0,0-.61,8.63c.4,2.4.89,5.42,1.32,8.1a18.76,18.76,0,0,0,6.05,11l1.37,1.21a18.8,18.8,0,0,0,5.71,3.48l5.28,2a18.71,18.71,0,0,0,9.37,1.06l1.5-.21a18.73,18.73,0,0,0,12.33-7.31l.16-.2a18.74,18.74,0,0,0,2-3.39l3.07-6.65A18.74,18.74,0,0,0,702,839l-1.18-13.07a18.9,18.9,0,0,0-2.28-7.4l-.73-1.32a18.72,18.72,0,0,0-6.45-6.78h0a18.73,18.73,0,0,0-8.49-2.79l-4.07-.32a18.67,18.67,0,0,0-8.39,1.29l-2.38,1A18.54,18.54,0,0,0,661.76,813.72Z"/><path class="cls-15" d="M672.2,827.86l-1.25.83a5.87,5.87,0,0,0-.87.71h0a15.68,15.68,0,0,0-4.6,11.11v.29a13.57,13.57,0,0,0,1.43,6.06h0A5.69,5.69,0,0,0,672,850h0a15.35,15.35,0,0,0,4.85-.79h0a10.15,10.15,0,0,0,6.94-9.2l.57-13.1a2.46,2.46,0,0,0-2.76-2.55h0A21.75,21.75,0,0,0,672.2,827.86Z"/><polygon points="679.48 825 679.48 801 687.48 800 686.9 821.41 679.48 825"/><path class="cls-13" d="M688.86,819.94l-3.67,2.33a13.56,13.56,0,0,0-4.36,4.49L678.9,830a13.57,13.57,0,0,0-1.84,8.69l.09.72a13.69,13.69,0,0,0,1.61,4.93l1.51,2.71a13.6,13.6,0,0,0,6.37,5.83l2.2,1a13.65,13.65,0,0,0,5.53,1.17h4.2a13.84,13.84,0,0,0,3.74-.52h0a13.6,13.6,0,0,0,7.93-6.09l1.3-2.16a13.57,13.57,0,0,0,1.94-7v-2.76a13.71,13.71,0,0,0-.87-4.78l-1.1-2.93a13.44,13.44,0,0,0-3.12-4.84l-2-2a13.63,13.63,0,0,0-6.95-3.72l-.6-.12A13.6,13.6,0,0,0,688.86,819.94Z"/><path class="cls-14" d="M686.37,823.24l-.87,1.18a11.74,11.74,0,0,0-1.73,3.4l-1.47,4.6a11.87,11.87,0,0,0-.44,5.26l.06.42a11.76,11.76,0,0,0,3.34,6.68l.51.51a11.67,11.67,0,0,0,4,2.61l2,.8a11.84,11.84,0,0,0,1.53.49l.52.13a11.81,11.81,0,0,0,5.42.08l1.65-.37a11.79,11.79,0,0,0,7.26-5l.35-.52a11.78,11.78,0,0,0,1.52-3.3l1-3.64a11.48,11.48,0,0,0,.46-3.24v-1.08a11.73,11.73,0,0,0-.85-4.38h0a11.74,11.74,0,0,0-3.58-4.83l-1.95-1.56a11.66,11.66,0,0,0-1.3-.91l-1-.58a11.84,11.84,0,0,0-7.24-1.62l-.88.09A11.78,11.78,0,0,0,686.37,823.24Z"/><path class="cls-16" d="M690.81,823.39l-1.74,1.45a8.55,8.55,0,0,0-3,5.5l-.44,3.53a8.55,8.55,0,0,0,0,2.26l.21,1.44a8.51,8.51,0,0,0,4.63,6.43l.2.1a8.54,8.54,0,0,0,3.81.9h1.24a8.46,8.46,0,0,0,3.36-.69l3.42-1.47a8.51,8.51,0,0,0,3.31-2.51l.35-.44a8.59,8.59,0,0,0,1.79-6.55l-.21-1.42a8.51,8.51,0,0,0-1.35-3.53l-1.66-2.5a8.52,8.52,0,0,0-3.29-2.9l-1.35-.68a8.54,8.54,0,0,0-5.49-.74h0A8.61,8.61,0,0,0,690.81,823.39Z"/><path class="cls-14" d="M692.27,826,690,827.93a6.9,6.9,0,0,0-2.48,5.3v1.08a6.86,6.86,0,0,0,3.07,5.73l1.79,1.2a7,7,0,0,0,2.47,1l1.06.21a6.92,6.92,0,0,0,4.89-.85l1-.6a6.92,6.92,0,0,0,2.62-2.82l.37-.76a6.84,6.84,0,0,0,.73-3.08v-1a6.88,6.88,0,0,0-1.51-4.31l-1.55-1.93a6.88,6.88,0,0,0-2.29-1.86l-.37-.18a6.85,6.85,0,0,0-4.75-.52h0A6.73,6.73,0,0,0,692.27,826Z"/><path d="M662.48,708l-3-40-1-26a408.74,408.74,0,0,0-5-49.75h0a180.23,180.23,0,0,0-9.59-35.58L624.48,506l12-8,12.3,29.09a262.36,262.36,0,0,1,14.91,47.24h0a427.24,427.24,0,0,1,8.73,64L673.48,656l4,49Z"/><path d="M275.48,540h0a94.6,94.6,0,0,0-18.25,14.25h0a32.84,32.84,0,0,0-6.13,8.5h0a132.6,132.6,0,0,0-9,23.36l-4.51,16.06q-1.08,3.83-1.89,7.73l-2.39,11.44a32.71,32.71,0,0,0,1,17h0a3.58,3.58,0,0,0,4.73,2.2l2.26-.9a9.78,9.78,0,0,0,5.36-5.23,5,5,0,0,1,.85-1.46c.43-.43.86-3.66,1.21-7.2q1.22-12.15,3.33-24.18l.46-2.62,1.5-10.54a43.4,43.4,0,0,1,7.64-19.06h0a80.73,80.73,0,0,1,8.55-10.09h0a42.61,42.61,0,0,1,12.11-8.48h0a35.52,35.52,0,0,1,17.23-3.27h0A22.38,22.38,0,0,1,312,552.33l3.32,2.61A50.18,50.18,0,0,1,330.48,575h0l8-11-19-11-19-8Z"/><path class="cls-17" d="M238.3,639.18l1-1a2.8,2.8,0,0,1,2.82-.69h0a2.82,2.82,0,0,1,2,2.49l1.22,19.59q.21,3.4.21,6.83V697l1.72,38.8q.28,6.19,1,12.37l2.3,20.23a287.35,287.35,0,0,0,6.15,34.82h0a74,74,0,0,0,9.32,22h0a58.32,58.32,0,0,0,13.73,15.06h0a27.22,27.22,0,0,0,10.71,5l.39.09a74.69,74.69,0,0,0,23.62,1.41l1.34-.14a53.9,53.9,0,0,0,13.1-3l.89-.33a2.8,2.8,0,0,1,3.75,2.63v1.6a2.8,2.8,0,0,1-2.39,2.76l-6.78,1a100.91,100.91,0,0,1-35.47-1h0A36.39,36.39,0,0,1,277,845.56h0a56.18,56.18,0,0,1-17.26-16.92h0A117.11,117.11,0,0,1,244.62,795h0A79,79,0,0,1,242,778.78L240.48,750l-1-42-1.78-30.3q-.22-3.71-.22-7.41V641.16A2.79,2.79,0,0,1,238.3,639.18Z"/><path class="cls-18" d="M330.48,843h0a4,4,0,0,1,2.69,4.15h0a3.71,3.71,0,0,1-2,3l-.67.34,9,1.56,6.41,1.43a8.63,8.63,0,0,0,5.05-.41h0a10.82,10.82,0,0,0,4.29-3.12l.85-1a10.36,10.36,0,0,0,2.4-6.63h0a5.85,5.85,0,0,0-2.76-5l-3.22-2a6.5,6.5,0,0,0-4.39-.93h0a29,29,0,0,0-8.82,2.75l-2,1a26.24,26.24,0,0,0-6.79,4.9Z"/><path class="cls-17" d="M341.44,691.24l5.27,6.78a3.12,3.12,0,0,1,.66,2.22L344.48,734l-2.62,27.46q-1.38,14.53-4.17,28.87l-3,15.33a34.29,34.29,0,0,1-4.68,11.8h0a79.52,79.52,0,0,1-21.67,22.72l-5,3.53a14.5,14.5,0,0,1-4,2l-1.52.48a65,65,0,0,1-31.17,2h0a88.62,88.62,0,0,1-12.12-3.1l-3.87-1.29a3.2,3.2,0,0,1-2.18-3h0a3.2,3.2,0,0,1,1.42-2.65l.53-.35a3.14,3.14,0,0,1,2.29-.49l4.61.76.3.07,10.71,2.86a68.41,68.41,0,0,0,8.39,1.67l5.21.69a24,24,0,0,0,10.84-1h0A39.31,39.31,0,0,0,305,835.59h0a71.4,71.4,0,0,0,15.93-17.89h0a53.71,53.71,0,0,0,5.6-12.11l3-9.51a82.26,82.26,0,0,0,2.91-12.39l2.61-17q.42-2.7.61-5.43L338.48,722l1.9-30.44A.59.59,0,0,1,341.44,691.24Z"/><path class="cls-18" d="M254.48,837l-4.55-4a33.79,33.79,0,0,0-10-6.17h0a8.55,8.55,0,0,0-8.31,1.09h0a14.66,14.66,0,0,0-5.41,8.16h0a6.9,6.9,0,0,0,.95,5.5h0a9.09,9.09,0,0,0,6.43,4l.67.08a30.8,30.8,0,0,0,6.44.13l7.36-.61a3.88,3.88,0,0,0,2.41-1.12h0a6,6,0,0,1-1.22-5h0a1.87,1.87,0,0,1,1.23-1.38l.09,0a12.3,12.3,0,0,1,3.9-.63Z"/><path class="cls-19" d="M240.48,645h0A32.8,32.8,0,0,0,248,628.9l1.2-7.37,1.74-7.68a46.38,46.38,0,0,1,16.28-26h0a38.47,38.47,0,0,1,4.88-3.32h0a45.23,45.23,0,0,1,24.58-5.9h0A62.17,62.17,0,0,1,312,581.31l5.49,1.69,5,2-4,5-10.89-2.56a41.55,41.55,0,0,0-12.38-1l-2.07.14a48.68,48.68,0,0,0-13,2.66l-8,2.84a13.92,13.92,0,0,0-4.76,2.85h0a39,39,0,0,0-12.12,22.35L253.48,628l-.47,3a32.23,32.23,0,0,1-8.45,17.26h0l-7.08,5.07v-7.32Z"/><path class="cls-20" d="M417.48,988h0a3.31,3.31,0,0,1,1.76-2.92L491.48,947l87-50,91.6-48.5a62,62,0,0,1,22.09-6.8h0a83.53,83.53,0,0,1,12.65-.45L749.48,843l157.92,3.92a19,19,0,0,1,6,1.13l5,1.8a5.43,5.43,0,0,1,3.53,4.49l.36,3.26a4.69,4.69,0,0,1-1.54,4h0a69.39,69.39,0,0,1-15.85,10.58L853.48,897,655,1001.57a29.81,29.81,0,0,1-13.87,3.43H623.48l-103-3-85.72-1a14.56,14.56,0,0,1-4.44-.75h0a23.09,23.09,0,0,1-11.17-8l-.46-.62A6,6,0,0,1,417.48,988Z"/><path class="cls-21" d="M713.74,853.76l188.38,6.76a3.82,3.82,0,0,1,1.76,7.13L840.48,904l-185,96.83a36.62,36.62,0,0,1-17,4.17h0l-127-3-72.92-.92a24.58,24.58,0,0,1-11.43-3h0a3.45,3.45,0,0,1,.06-6.08L673.64,862.87A80.19,80.19,0,0,1,713.74,853.76Z"/><path class="cls-7" d="M613.48,955.44h0a8.79,8.79,0,0,1,4.86-7.87h0a5.31,5.31,0,0,1,2.41-.57h10.3a1.37,1.37,0,0,1,.78.25l9.65,6.75,9.32,6.73a64.12,64.12,0,0,1,14.85,15l5.74,8.13a1.15,1.15,0,0,0,.21.23h0a1.36,1.36,0,0,0,2-1.8l-10-14.16a1.37,1.37,0,0,0-.23-.25l-13.11-11.24c-.51-.43-1-.89-1.47-1.36L641,947.5a19,19,0,0,1-4.86-8.27h0a4.31,4.31,0,0,1,.87-4l0,0a16.88,16.88,0,0,1,11.29-5.83l1.76-.16a16.65,16.65,0,0,1,4.78.25h0a29.33,29.33,0,0,1,13.5,6.64l14,12.15a69.89,69.89,0,0,1,6,5.83l6.78,7.46a1.36,1.36,0,0,0,1,.45h0a8.38,8.38,0,0,1,6.89,3.62l5.68,8.26a5.43,5.43,0,0,0,7.17,1.64l.2-.12a3.13,3.13,0,0,0,1.32-4L711.48,958l-7.33-14.66a23.13,23.13,0,0,0-4.31-6L690,927.5a7.18,7.18,0,0,1-.89-1.09l-.51-.76A9.61,9.61,0,0,1,688,916h0a5.26,5.26,0,0,1,1.36-1.71l1.37-1.15a17.72,17.72,0,0,1,8.61-3.89l3.65-.56a15.34,15.34,0,0,1,8.66,1.2l4.39,2a15,15,0,0,1,4.37,3l6.51,6.51q.58.58,1.11,1.2l10.37,12.1a19.73,19.73,0,0,1,2,2.73l7.46,12.43a16.56,16.56,0,0,0,1.5,2.12l1,1.16a5.43,5.43,0,0,0,7.29,1l3.48-2.44a7.71,7.71,0,0,0,3.09-4.58L766.48,937l2.23-11.16a15.74,15.74,0,0,0-.36-7.59l-1.63-5.44a9.27,9.27,0,0,1-.33-1.65h0a16.19,16.19,0,0,1,5.14-13.71l.81-.74a16.48,16.48,0,0,1,12.09-4.3h0a18.16,18.16,0,0,1,14.87,9.43h0a10.85,10.85,0,0,1,1.32,4.62l.86,14.54.94,26.46c0,1,0,2,0,3.08l-.89,16.94c0,.35,0,.69,0,1v11a1.34,1.34,0,0,1-.26.8l-6.55,9a21.24,21.24,0,0,0-2,3.47l-4.89,10.49a19.9,19.9,0,0,1-3.23,4.88l-5.91,6.56a17.93,17.93,0,0,1-2.43,2.26L766,1024.8a27.29,27.29,0,0,1-3.28,2.16l-20.88,11.7a23.83,23.83,0,0,1-5,2.09h0a17.92,17.92,0,0,1-8.79.27l-1.49-.33a25.85,25.85,0,0,1-5.91-2.1L703.48,1030h0a7.42,7.42,0,0,0-4.22-.72l-5.24.65a7.88,7.88,0,0,1-1.09.07h-5.27a7.24,7.24,0,0,1-5.33-2.34l-8.85-9.66-11-11-.06-.06-14-16-13-14-.07-.08-13-12-8.6-8.6A1.35,1.35,0,0,1,613.48,955.44Z"/><path class="cls-4" d="M701.48,1029l14.41-1c.39,0,.79,0,1.18,0H718a18,18,0,0,0,12.75-5.28h0a25,25,0,0,0,3.07-3.74l0-.05A19.4,19.4,0,0,0,735,1017l.06-.11a2.37,2.37,0,0,1,1.38-1.2h0a7,7,0,0,1,4.15-.09h0a14.93,14.93,0,0,0,9.65-.5l1.75-.7a18.37,18.37,0,0,0,6.18-4.07l3.67-3.67a23.31,23.31,0,0,1,3.61-3L771,1000c1-.64,1.89-1.31,2.8-2l2.91-2.26a39.06,39.06,0,0,1,10.34-5.78l.64-.25a17.19,17.19,0,0,1,3.59-.91l3.16-.74-10,10-12,12-6.82,7.5a21.77,21.77,0,0,1-7.52,5.36l-6.33,2.71a27.31,27.31,0,0,1-6.92,1.94l-.25,0a24,24,0,0,0-6.1,1.71l-2.7,1.15c-.91.39-1.83.75-2.77,1.06l-4,1.33a11.31,11.31,0,0,1-7.18,0h0a28.83,28.83,0,0,0-4.92-1.16l-4.49-.64Z"/><path class="cls-12" d="M621.19,957.57l2.29-.57h0a5.45,5.45,0,0,0,3.62-4.1l.38-1.9,6,7h0a3.92,3.92,0,0,1,.73,4.53l-.16.33a5.42,5.42,0,0,1-1.59,1.9L630.77,966a4.85,4.85,0,0,1-2.91,1h-.55a4.43,4.43,0,0,1-3.12-1.29L615.48,957l2.29.57A7.07,7.07,0,0,0,621.19,957.57Z"/><path class="cls-12" d="M640.48,943h3.66a17.32,17.32,0,0,0,6.44-1.24h0a6.08,6.08,0,0,0,2.95-2.51l2-3.25,7,7h0a12.72,12.72,0,0,1-1.34,5.68l-.08.16a5.53,5.53,0,0,1-1.62,1.94h0a8.25,8.25,0,0,1-6.59,1.49l-1.37-.27-3.53-.88a1.56,1.56,0,0,1-.79-.49Z"/><path class="cls-12" d="M690.48,922l1.65.24a25.51,25.51,0,0,0,10.54-.72l.38-.11a5.74,5.74,0,0,0,2.48-1.46h0a6.65,6.65,0,0,0,2-4.71V914l10.14,9.22a1.67,1.67,0,0,1,.43,1.86l-.66,1.65a9.32,9.32,0,0,1-2.82,3.8h0a14.53,14.53,0,0,1-7,3h0a10,10,0,0,1-5.86-.95h0a18.55,18.55,0,0,1-5.61-4.3Z"/><path class="cls-12" d="M774.48,905h3a25.52,25.52,0,0,0,11.44-2.7h0a2.8,2.8,0,0,0,1-.84l2.6-3.46,3.75,10.51a6.9,6.9,0,0,1-1,6.45h0a7.77,7.77,0,0,1-1.86,1.76L791.49,918a11.94,11.94,0,0,1-6.63,2h-1.62a14,14,0,0,1-3.47-.43h0a3.8,3.8,0,0,1-2.79-2.88Z"/><path class="cls-4" d="M631.48,972l4.43-1.48a12.31,12.31,0,0,0,2.94-1.43l3.95-2.64a1.16,1.16,0,0,1,1.33,0l2.53,1.9a1.21,1.21,0,0,1,.36,1.52h0a12.9,12.9,0,0,1-4.41,5L640.92,976a5.69,5.69,0,0,1-3.18,1h0a3,3,0,0,1-2.16-.9Z"/><path class="cls-4" d="M661,960.78l2,.45a8.88,8.88,0,0,0,6.51-1.06l.33-.2a3.33,3.33,0,0,0,1.63-2.86V947l-3.23,5.81a9.43,9.43,0,0,1-5.24,4.35h0a16.7,16.7,0,0,1-5.2.84h-3.33A19.14,19.14,0,0,0,661,960.78Z"/><path class="cls-4" d="M704.48,938l3.64,1.56a17.78,17.78,0,0,0,7,1.44h1.66a7.18,7.18,0,0,0,3.18-.75h0a4.53,4.53,0,0,0,2.5-4V927l-4.31,5.07a6.65,6.65,0,0,1-1.65,1.57h0a15.31,15.31,0,0,1-11,2.36l-6-1Z"/><path class="cls-4" d="M781.68,925.82h0a4.2,4.2,0,0,0,4.07,3.18h.36a4.4,4.4,0,0,0,.73-.06l2.93-.49a8.55,8.55,0,0,0,4.65-2.39l.39-.39a4.06,4.06,0,0,0,1-1.57l.51-1.52a4.05,4.05,0,0,0,.19-1.19V918l-4.15,3.32a3.94,3.94,0,0,1-1.93.83l-4.7.68a5.24,5.24,0,0,1-2.39-.22l-1.83-.61v2.15A7.13,7.13,0,0,0,781.68,925.82Z"/><path class="cls-4" d="M651,992.44l6.29-2.36a1,1,0,0,0,.37-.24l.94-1a1,1,0,0,1,1.6.16h0a1,1,0,0,0,1.87-.32l.05-.22a1,1,0,0,1,1.63-.57l2.55,1.91a1,1,0,0,1,.31.37l1.55,3.11a1,1,0,0,1-.19,1.2l-2.32,2.32a1,1,0,0,1-.35.23L660.54,999l-.13,0-3.36.84a1.06,1.06,0,0,1-1-.27L653.48,997l-2.86-2.86A1,1,0,0,1,651,992.44Z"/><path class="cls-4" d="M681.42,988.94l2.52,2.52a1.81,1.81,0,0,0,1.3.54h1.94a1.9,1.9,0,0,0,.58-.09l5.61-1.87a.9.9,0,0,1,.22-.06l3.84-.77a1.85,1.85,0,0,0,1.39-1.22l.21-.66a1.83,1.83,0,0,0-.72-2.11l-1.37-.91a1.85,1.85,0,0,0-1-.31H689.7a2.12,2.12,0,0,1-.44,0l-2.35-.59a1.83,1.83,0,0,0-2.09,1h0a1.82,1.82,0,0,1-1.06.92l-1.56.52a1.82,1.82,0,0,0-1.06.92l-.07.13A1.86,1.86,0,0,0,681.42,988.94Z"/><path class="cls-4" d="M726.28,966.41l-.65,4.5a2.45,2.45,0,0,0,.55,1.93l3.56,4.27a2.48,2.48,0,0,0,1.9.89h4.18a2.44,2.44,0,0,0,1.23-.33l6.14-3.51a2.21,2.21,0,0,0,.52-.39l4.16-4.16a2.45,2.45,0,0,0,.7-1.47l.75-6.74a2.47,2.47,0,0,0-1-2.25h0a2.48,2.48,0,0,0-3.86,1.3l-.65,2.3a2.48,2.48,0,0,1-1.6,1.66l-3.79,1.27a2.48,2.48,0,0,1-1.89-.14l-4.09-2a2.46,2.46,0,0,0-2-.09l-2.65,1.06A2.46,2.46,0,0,0,726.28,966.41Z"/><path class="cls-4" d="M790.92,945.46l-4.58,3.83a2,2,0,0,0-.7,1.81l.56,4a2,2,0,0,0,2.23,1.7l5.71-.72a2.05,2.05,0,0,0,.64-.19l6.59-3.3a2,2,0,0,0,1.11-1.79v-4.62a2.64,2.64,0,0,0,0-.28L802,943a2,2,0,0,0-3.39-1.13h0a2.28,2.28,0,0,1-.38.3L794,944.72a2,2,0,0,1-1,.28h-.73A2,2,0,0,0,790.92,945.46Z"/><polygon class="cls-7" points="554.48 98 541.48 95 514.48 92 497.48 94 536.48 17 555.48 50 554.48 98"/><path class="cls-22" d="M704.83,1029.94l15,8,2.71,1.36a21.31,21.31,0,0,0,15.15,1.5l.72-.2a17.89,17.89,0,0,0,4.57-1.95l7.85-4.71,14-8,13-10,9-10,7-15,4-5,7.7,22.34,5.55,22.08a12.16,12.16,0,0,1-.21,6.71h0a22.42,22.42,0,0,1-10.28,12.64l-11.68,6.62q-1.08.62-2.13,1.29l-8.67,5.57a29.71,29.71,0,0,1-9.24,3.92l-4.55,1.07a36.48,36.48,0,0,1-12,.8h0a44.51,44.51,0,0,1-21-7.74h0a44.69,44.69,0,0,1-7-6.06l-12.85-13.59a30.86,30.86,0,0,1-2.14-2.56l-7.43-10.08Z"/><path d="M318.48,217l11,22,13,14h11l7,33,3,30,7,65,5,59-25-47-21.09,27.75a128.66,128.66,0,0,1-41.53,35.47L258.48,472l-14,5.1-38,13.9-3.09,1.31a119.54,119.54,0,0,1-62.14,8.49h0a68.88,68.88,0,0,1-25.77-8.8h0l19.28,2.41A159.91,159.91,0,0,0,206.48,487h0l-32.51.86a57.55,57.55,0,0,0-10.86,1.31L145.48,493l27-11,3.28-1.19a138.41,138.41,0,0,1,15.72-4.68l12.13-2.83a107.77,107.77,0,0,1,20-2.72h0a170.34,170.34,0,0,0,27.46-3.41l5.86-1.22a29,29,0,0,0,8.57-3.28h0a170.7,170.7,0,0,0,27.92-20.17h0a22.8,22.8,0,0,0,6.84-11h0A156.83,156.83,0,0,0,305.48,400h0a365.69,365.69,0,0,0-59.12,97.37L237.48,519l7-38.23A131.07,131.07,0,0,1,277.72,415h0q2.76-2.94,5.32-6.08l2.85-3.46a44.84,44.84,0,0,0,9.83-33.88l-.63-5.11A430.1,430.1,0,0,1,292,307.36l.53-33.36,13-41Z"/><path d="M531.48,0l-126,2-20.3,16.1a125.69,125.69,0,0,0-16.07,15.22l-11.47,13a205.89,205.89,0,0,0-21.7,29.4L317.48,106,294.6,148.1c-1.41,2.6-2.72,5.26-3.9,8L278.48,184l-22,51-14.4,37.14a68,68,0,0,0-4.6,24.58h0a70.06,70.06,0,0,0,6.36,29.17h0a141.18,141.18,0,0,0,10.81,19.37L257.8,350a19.05,19.05,0,0,1,2.63,15.21h0a19,19,0,0,1-3.35,6.93l-3.26,4.24a37.09,37.09,0,0,1-10.46,9.27l-10.11,6A146.41,146.41,0,0,0,204.51,414l-1.65,1.65a17.61,17.61,0,0,0-3.73,5.46h0A49.65,49.65,0,0,0,195.47,448h0a122.12,122.12,0,0,0,2.82,13.92L201.48,474V447.55a13.82,13.82,0,0,1,.34-3.07h0a54.42,54.42,0,0,1,16-28h0a50.32,50.32,0,0,1,5.64-4.55l17.6-12.25q2.41-1.68,4.73-3.5l8.81-7a63.38,63.38,0,0,0,13.45-14.57l.43-.65h0A32.21,32.21,0,0,1,257,398.65l-7.43,6.24a71.73,71.73,0,0,1-13.13,8.77h0a82.9,82.9,0,0,0-32,29.34h0l-18.34,32.5a15.11,15.11,0,0,1-11,7.55h0a33.2,33.2,0,0,0-12.34,4.39l-21.71,13a40.31,40.31,0,0,0-4.86,3.45L122.9,515a20.12,20.12,0,0,1-5.34,3.19L95.48,527l12.08-2.42a53.33,53.33,0,0,0,23.16-10.87l9.68-7.84a16.18,16.18,0,0,1,2.3-1.54L163.48,493l14-4-20,18L147,514.73a63,63,0,0,1-18.6,9.42L122.48,526l14.24,2.85a2,2,0,0,0,1.42-.26l24.76-15.24a4.45,4.45,0,0,0,1-.85l7.86-8.53a123.41,123.41,0,0,1,33.94-26l5.75-3,10.36-4.14a168.53,168.53,0,0,0,27.94-14.33l5.76-3.66c2-1.25,3.88-2.54,5.77-3.89l14.6-10.43a82.19,82.19,0,0,0,18.29-18h0a30.72,30.72,0,0,0,4.61-27.44l-9.6-30.58a38.29,38.29,0,0,0-5-10.3l-9.34-13.53A44.27,44.27,0,0,1,267.07,315L266,280.16a67.8,67.8,0,0,1,5.54-29.09l4.13-9.56a253.48,253.48,0,0,1,13.24-26.29l18.74-32.35a205.34,205.34,0,0,1,15.25-22.73l4.45-5.78a208.64,208.64,0,0,0,24-39.38l11.17-24,9.23-9.89a127.16,127.16,0,0,1,44.45-30.79L446.46,37.8a141.36,141.36,0,0,1,29-8.49l14.15-2.55a129.49,129.49,0,0,1,41.9-.65l6,.89Z"/><path d="M535.48,27l1,6-2,1,2,4h-2l1,2h-1l2,2h-4l4,3h-6l6,2,4,4h-5l5,2v4h-3l2,3h-3l1,3-8-4,6,8-9-4,9,11-13-8,7,11s-9-3-10-3,8,10,8,10l-8-6,5,9-6-3,5,8-18-.64a89.24,89.24,0,0,0-19.91,1.52l-25.54,4.86a130.25,130.25,0,0,0-50.56,21.44L391,132.25c-1.65,1.17-3.25,2.41-4.78,3.72l-17.75,15.22a81.44,81.44,0,0,1-34.11,17.37h0a5.75,5.75,0,0,0-3.06,1.9L330,172a37.33,37.33,0,0,0-8.5,20.75l-1.12,13.46a45.31,45.31,0,0,1-6.6,20.06l-.33.55a40.17,40.17,0,0,0-5.82,17.42l-.06.63a104.72,104.72,0,0,0,24.76,77.82l17.27,20.15q1.88,2.19,3.58,4.52l8.75,12.05a73.46,73.46,0,0,1,9,16.39h0A64.59,64.59,0,0,1,373.47,415h0a121.1,121.1,0,0,1-12.09,30.28l-4.9,8.68,5.63-18.79A122.42,122.42,0,0,0,367,391.9h0a25,25,0,0,0-5.52-14l-8-9.85-22.94-29.49a114.93,114.93,0,0,0-11-12.23l-20-19.28,23.81,33.61A137.64,137.64,0,0,1,348.48,426h0l1.74,42.76a25.88,25.88,0,0,1-2.36,11.91h0a33.43,33.43,0,0,0,5.85,36.74h0a69.49,69.49,0,0,1,15.46,26.7l.44,1.41a86.44,86.44,0,0,1,3.87,25.55h0A51.37,51.37,0,0,1,360,605.72l-2.24,2.45a122.07,122.07,0,0,1-11.35,10.93l-33,27.9,17.35-29.75a97.48,97.48,0,0,0,12-64.81h0a55.21,55.21,0,0,0-11.56-25.81L317,509a120.37,120.37,0,0,1-17.09-28.33h0a29.9,29.9,0,0,1-2.42-11.79h0a29.58,29.58,0,0,1,5.91-17.75h0a30.35,30.35,0,0,0,4.87-26.65L303.48,408l-9.58-30.84A135.77,135.77,0,0,0,276,340.39l-.25-.37A49.71,49.71,0,0,1,267,313.13c-.28-9.63-.66-22.26-1-32.16a79.37,79.37,0,0,1,5.24-30.91l6-15.7a96.24,96.24,0,0,1,7.93-16L314.48,171l24.25-35.93a64.92,64.92,0,0,0,4.85-8.5l7.73-16.27a116.74,116.74,0,0,1,24.58-34.1l3.81-3.65A72.72,72.72,0,0,1,405.07,55l43-17.83a123.88,123.88,0,0,1,25.56-7.5l12.59-2.27a144.87,144.87,0,0,1,48.54-.47Z"/><path d="M521.48,91l-53.9,7.06a113.42,113.42,0,0,0-54.21,22.4l-14.48,11.1a63.6,63.6,0,0,0-14.29,15.26l-22.43,33.65a32.16,32.16,0,0,1-9.27,9.14h0A37.33,37.33,0,0,0,337.48,210h0a183.77,183.77,0,0,0,10.24,66.11l2.76,7.89,9.74,29.81A104.68,104.68,0,0,0,383.48,353h0a139.37,139.37,0,0,1-38.92-53.51h0a261.51,261.51,0,0,1-16.72-61h0a17.84,17.84,0,0,1,0-4.95l2.35-17.38a129.08,129.08,0,0,1,9.06-33.07h0a87.24,87.24,0,0,1,10.87-18.78l12-15.86a82.87,82.87,0,0,1,7.3-8.37l24.24-24.24a51.29,51.29,0,0,1,8.37-6.76l15-9.7a79,79,0,0,1,38.34-12.59L485.48,85l27,1Z"/><path d="M540.48,92l-3-9a0,0,0,0,1,0,0h3s0,0,0,0l-3-8a0,0,0,0,1,0,0h6a0,0,0,0,0,0,0l-6-11s0,0,0,0l6,1s0,0,0,0l-1-3h0l4-1s0,0,0,0l-2-4h0l4-1h0l-7-8v0l2-2v0l-3-4v0l2-2v0l-4-4s0,0,0,0l3-1v0l-4-3h0l-2-13h0l-4-17V1l29,2h0a131,131,0,0,1,40.75,30.85l.67.76a116.05,116.05,0,0,1,11.88,15.84c5.29,8.49,13.33,21.36,17.3,27.71a24.29,24.29,0,0,1,3.24,8.27l5.51,28.76a174.85,174.85,0,0,1,3,27.84L643.2,155a103.81,103.81,0,0,1-1.4,20.15c-.58,3.43-1.25,7.4-1.95,11.37q-7.43,42.62-13.72,85.41L623.48,290l-12,83-5,52.74q-1,10.26-1.37,20.56l-1.38,36.91a188.27,188.27,0,0,0,8.7,64.07v0a92.8,92.8,0,0,0,38,49.78l0,0a46,46,0,0,0,19.81,7.11l14.18,1.62q10.08,1.15,20.21,1.6L739.37,609s0,0,0,0l-20.46,2.19a235.87,235.87,0,0,1-70.4-3h0a52.47,52.47,0,0,1-20.16-8.61l0,0a62,62,0,0,1-13.61-13.15L598.55,565.1s0,0,0,0l9.62,17.21a81.05,81.05,0,0,0,25.11,27.45h0a43.07,43.07,0,0,0,13.43,6.1h0A159.67,159.67,0,0,0,686.86,621h16.62l-14.75,2.87a93.28,93.28,0,0,1-42.16-1.52h0a93.51,93.51,0,0,1-29.64-14l0,0A58.18,58.18,0,0,1,600.12,590l-12.57-21.84s0,0,0,0l4.8,11.47A141.51,141.51,0,0,0,631.46,633h0l23,15-18.23-10.6A120.21,120.21,0,0,1,595.88,599l-4.06-6.27a101.43,101.43,0,0,1-7.58-14L575.49,559h0a48.71,48.71,0,0,1-15.9,24.9l-18.3,15.26q-5.79,4.82-12,9.1h0A267.73,267.73,0,0,1,481,634.72L456.56,645s0,0,0,0l52.92-35,1.62-1a198,198,0,0,0,53.37-50h0l15-34.93s0,0,0,0l-20.11,28.26a136.71,136.71,0,0,1-41.85,38.45l-18.89,11.16s0,0,0,0l16.74-13.58a203.51,203.51,0,0,0,35.59-37.24l15.47-21s0,0,0,0L526.56,574.9s0,0,0,0l4.86-7.2A176,176,0,0,0,559.48,496v0h0l.27-14.5a262.2,262.2,0,0,0-9.65-75.58v0a144.36,144.36,0,0,1-4.79-26.25L543.48,359h0l2.34-2.11a81.48,81.48,0,0,0,13.37-15.46l6.29-9.43h0l9.19-16.54a33.12,33.12,0,0,0,1.47-3L584.48,293h0l7.6-1.69a7,7,0,0,0,2.56-1.14l2.47-1.76a8.9,8.9,0,0,0,3.69-6.54l.37-4.9a16,16,0,0,1,2.44-7.33l11.45-18a10.6,10.6,0,0,0,.73-1.37C617.69,246,627.38,224,626.48,224c-.72,0-1.44-6.75-1.79-10.52a3.16,3.16,0,0,0-2.7-2.84l-2.44-.34a3.33,3.33,0,0,0-3.23,1.44l-1.38,2.07a7.23,7.23,0,0,0-1.17,4.81h0a13.35,13.35,0,0,1-3.83,10.92l-.66.66a6.83,6.83,0,0,1-1.81,1.3l-5,2.49s0,0,0,0l5-29h0l3-32h0l-.75-10.42a56.55,56.55,0,0,0-12.26-31.34l-6.78-8.47a71.2,71.2,0,0,0-25-19.8l-3.08-1.47A48.64,48.64,0,0,0,556.15,99l-12.67-4h0l-3-3Z"/><path d="M633.48,81l15,43,10,50,4.19,22.81a477.48,477.48,0,0,1,6.67,52.76l.83,11.85q1.3,18.57,4.11,37l4.2,27.59,7,63h0a142,142,0,0,1,14.75,71.85c-.43,7.3-.75,12.82-.75,13.15s-.06-2.23-.14-6.14a204.2,204.2,0,0,0-16.72-76.54l-.14-.32h0a129.39,129.39,0,0,1,3.67,24.45c1.1,20.46,3.06,58.75,2.33,56.55-1-3-32-11-32-11l-10-4-34,28-29,20,40-39,16-20-19.82,19.06a63,63,0,0,1-13.72,10L563.48,498l63-45-34,13,26-19-13-3,1.92-37.07a384.83,384.83,0,0,1,4.42-41.62L623.48,293l9-61,6-32.22a241.51,241.51,0,0,0,4-43.93h0a294,294,0,0,0-5.24-55.21Z"/><path class="cls-23" d="M509.53,92.34l-33.17,1.25a79.54,79.54,0,0,0-21.25,3.73l-8.68,2.77a138,138,0,0,0-54.23,32.59L381.63,143a48.93,48.93,0,0,0-8.64,11.3L363.72,171a26.63,26.63,0,0,1-5.72,7.09l-3.21,2.8a1.51,1.51,0,0,1-2.26-.31l-10.24-15.76a5.06,5.06,0,0,0-5.09-2.23h0a17.87,17.87,0,0,0-12.86,9.27h0a39.55,39.55,0,0,0-4.58,19.57l.39,14.45a69.2,69.2,0,0,0,4.78,23.48l1.94,5A40.17,40.17,0,0,0,342,253l1.21.8a1.52,1.52,0,0,0,.68.25l1.13.11a10.82,10.82,0,0,1,9.65,9.31L359.48,299l6.8,36.57a80.7,80.7,0,0,1,1.35,13l.25,10.16a119.22,119.22,0,0,1-9.14,48.66h0a1.54,1.54,0,0,0,.05,1.26L366.48,424l4.16,9.17a20.58,20.58,0,0,0,2,3.46h0a80.38,80.38,0,0,0,16,16.43l1.3,1a46.59,46.59,0,0,0,5.28,3.52l8.65,4.94a28.22,28.22,0,0,0,5.43,2.38l13.2,4.21a28.4,28.4,0,0,1,10.58,6.09l4.31,3.92a21.92,21.92,0,0,1,3.59,4.22l11.39,17.52a1.59,1.59,0,0,1,.15.29l2.75,7.35a1.52,1.52,0,0,1,0,1l-.63,1.9a1.52,1.52,0,0,1-.76.87l-.44.22a1.51,1.51,0,0,0-.82,1.6l1.34,8a1.5,1.5,0,0,0,2.55.82l.82-.81a1.37,1.37,0,0,1,.23-.19l5.66-3.77a1.33,1.33,0,0,1,.47-.21h0a14,14,0,0,0,6.48-3.67l4.27-4.27,6.14-6.14c.57-.57,1.16-1.13,1.76-1.67l7.66-6.9q1.44-1.29,3-2.46l9.5-7.26a58.43,58.43,0,0,0,10.58-10.5L520.93,465a35.42,35.42,0,0,0,2.8-4.18l6.72-11.76a.47.47,0,0,0,0-.1L538,433.18a30.8,30.8,0,0,0,2.26-6.62l3-13.82a28.2,28.2,0,0,0,.1-11.5l-1.19-5.92a43.84,43.84,0,0,1-.1-16.66l1.24-6.61c.13-.7.23-1.41.29-2.11l.4-4.84a16.75,16.75,0,0,1,4.83-10.43l6.94-6.93a24.36,24.36,0,0,0,3.1-3.78l13.6-20.4a50.73,50.73,0,0,0,5-9.67l4.94-12.72a1.06,1.06,0,0,0,.09-.36l.83-6.61a1.52,1.52,0,0,1,1.35-1.32l3.25-.33A21,21,0,0,0,598,288.76h0a10,10,0,0,0,3.52-4.59l1.45-3.88a7.61,7.61,0,0,0,.49-2.67v-2.25a13,13,0,0,1,1.64-6.32l3.33-6a.41.41,0,0,0,0-.09l7.58-16.1a18.59,18.59,0,0,0,.7-1.74l3.7-8.11a43.26,43.26,0,0,1,3-7l2.47-6a6.38,6.38,0,0,0,.69-2.08l.43-3.07a7.17,7.17,0,0,0-1.25-5.16l-1.31-1.82a5.13,5.13,0,0,0-5.42-2l-2.61.15a19.79,19.79,0,0,0-3,3l-3.71,11.52a1.57,1.57,0,0,1-.82.66h0a1.52,1.52,0,0,1-2-1.73l1.47-7.38,0-.15,2.65-27.41a53.28,53.28,0,0,0,.22-7l-.67-20.9a43.28,43.28,0,0,0-2.36-12.8h0A75.68,75.68,0,0,0,580.9,111h0a92.27,92.27,0,0,0-43.17-16.71L527.38,93A117,117,0,0,0,509.53,92.34Z"/><path class="cls-4" d="M358.48,298.49l6.8,36.57a80.71,80.71,0,0,1,1.35,13l.25,10.15a119.3,119.3,0,0,1-9.14,48.67h0a1.52,1.52,0,0,0,.05,1.25l7.69,15.38,4.16,9.17a20.58,20.58,0,0,0,2,3.46h0a80.43,80.43,0,0,0,16,16.44l1.3,1a46.51,46.51,0,0,0,5.28,3.51l8.65,4.94a27.66,27.66,0,0,0,5.43,2.39l13.2,4.2a28.56,28.56,0,0,1,10.58,6.1l4.31,3.91a21.69,21.69,0,0,1,3.59,4.23l11.39,17.52a1.59,1.59,0,0,1,.15.29l2.75,7.34a1.52,1.52,0,0,1,0,1l-.63,1.9a1.52,1.52,0,0,1-.76.87l-.44.22a1.51,1.51,0,0,0-.82,1.6l1.34,8a1.51,1.51,0,0,0,2.55.82l.82-.82a2.11,2.11,0,0,1,.23-.19l5.66-3.77a1.33,1.33,0,0,1,.47-.21h0a13.93,13.93,0,0,0,6.48-3.67l4.27-4.27,6.14-6.14c.57-.57,1.16-1.13,1.76-1.67l7.66-6.89c1-.87,1.95-1.69,3-2.47l9.5-7.26a58.11,58.11,0,0,0,10.58-10.5l7.84-10.08a35.3,35.3,0,0,0,2.8-4.17l6.72-11.77a.31.31,0,0,0,0-.1L537,432.68a31.07,31.07,0,0,0,2.26-6.63l3-13.82a28.2,28.2,0,0,0,.1-11.5l-1.19-5.92a43.84,43.84,0,0,1-.1-16.66l.35-1.83c.72-3.88,1.25-7.8,1.58-11.73h0a16.7,16.7,0,0,1,4.83-10.42L536.48,363l-30,21h0a46.32,46.32,0,0,1-28.79,8.17l-9.61-.51A93.23,93.23,0,0,1,443.5,387h0a99,99,0,0,1-22.65-10.92h0a91.31,91.31,0,0,1-17-14.26h0a115.22,115.22,0,0,1-11.55-14.6l-6.94-10.4a112.74,112.74,0,0,1-7-12.09L369.48,307l-4.37-10.91q-1.64-4.09-2.86-8.32L356.48,268Z"/><path class="cls-4" d="M388,452.94l1.3,1a46.59,46.59,0,0,0,5.28,3.52l8.65,4.94a28.26,28.26,0,0,0,5.43,2.39l13.2,4.2a28.75,28.75,0,0,1,10.58,6.09l4.31,3.92a21.69,21.69,0,0,1,3.59,4.23l11.39,17.51a1.68,1.68,0,0,1,.15.3l2.75,7.34a1.52,1.52,0,0,1,0,1l-.63,1.9a1.52,1.52,0,0,1-.76.87l-.44.22A1.51,1.51,0,0,0,452,514l1.34,8a1.51,1.51,0,0,0,2.55.82l.82-.82a1.37,1.37,0,0,1,.23-.19l5.66-3.77a1.33,1.33,0,0,1,.47-.21h0a13.93,13.93,0,0,0,6.48-3.67l4.27-4.27,6.14-6.14c.57-.57,1.16-1.13,1.76-1.67l7.66-6.9q1.44-1.29,3-2.46l5.66-4.33a95.57,95.57,0,0,0,17.39-17.24l4.87-6.27a34.61,34.61,0,0,0,2.8-4.18l6.72-11.76a.47.47,0,0,0,0-.1l7.47-15.77a30.8,30.8,0,0,0,2.26-6.62l3-13.82a28.2,28.2,0,0,0,.1-11.5l-1.19-5.92a43.84,43.84,0,0,1-.1-16.66l.35-1.84q1.08-5.82,1.58-11.72h0a16.7,16.7,0,0,1,4.83-10.42l-11.32,8.83-30,21h0a46.34,46.34,0,0,1-28.79,8.17l-9.61-.51a93.19,93.19,0,0,1-20.78-3.48,43.49,43.49,0,0,1-6.63-2.52l-10.57-5,8.86,9.66a55.58,55.58,0,0,0,4.52,4.43l5.62,4.91-5-8,16,3.37a29.62,29.62,0,0,0,6.09.63h11.23a5.68,5.68,0,0,1,5.43,7.35h0a32.64,32.64,0,0,1-5.35,10.34l-11.95,15.54a36.24,36.24,0,0,1-10.76,9.38L440.48,447l-3.72,2.9A31.78,31.78,0,0,1,425,455.62L411.48,459l15.77,2.25a30.18,30.18,0,0,0,22.18-5.58l6.81-5a26.21,26.21,0,0,1,4.77-2.79l8.46-3.8a36,36,0,0,0,14.68-12.16h0a27.4,27.4,0,0,0,2.32-4l7-14.86a37,37,0,0,1,2.18-4h0a112.64,112.64,0,0,1,26.84-29.37l1-.72,14-11-2.71,6.91a176.06,176.06,0,0,0-9.33,33.1h0a62,62,0,0,0,0,22h0a29.51,29.51,0,0,1-3.81,20.58L517,458.2a31.76,31.76,0,0,1-18.75,14.13h0a29.58,29.58,0,0,0-15.91,10.8l-11.66,15.54a6,6,0,0,1-7.88,1.55l-.36-.22-1.55-7.74a28.57,28.57,0,0,0-13.12-18.78l-1-.63a61,61,0,0,0-13.34-6.1l-18-5.75-24-9-15-9Z"/><path class="cls-4" d="M386,449.94a80.43,80.43,0,0,1-16-16.44h0a19.93,19.93,0,0,1-2-3.46l-4.16-9.17-7.69-15.38a1.5,1.5,0,0,1-.05-1.26h0a119.22,119.22,0,0,0,9.14-48.66L365,345.41a80.7,80.7,0,0,0-1.35-13l-4-21.61a258.79,258.79,0,0,1-3.78-30.14l-1-15.31,5.76,19.77c.83,2.82,1.78,5.59,2.87,8.32l.52,1.29q3.84,9.62,8.48,18.88l4.24,8.47a112.88,112.88,0,0,0,7,12.1l6.94,10.4a114.33,114.33,0,0,0,11.55,14.6h0a91.76,91.76,0,0,0,17,14.26l7.25,5.53-8.24-5.4A185.5,185.5,0,0,1,376.48,336h0l-7-10,4.65,22.57a114.89,114.89,0,0,1,2.35,23.1V389l-.77,22.2a48.4,48.4,0,0,0,1.42,13.4h0a47.09,47.09,0,0,0,13.41,22.87l6.94,6.53Z"/><path class="cls-4" d="M322.84,189l-.27,3c-.06.67-.09,1.35-.09,2v20.51a6,6,0,0,0,1.75,4.22h0a9,9,0,0,1,1.93,2.89l4.11,9.85a1.2,1.2,0,0,0,.73.68l1.23.42a1.23,1.23,0,0,0,1.57-.86l2.6-10.4a1.16,1.16,0,0,1,.32-.57l3-3a1.21,1.21,0,0,1,1.57-.13l5.84,4.17a1.2,1.2,0,0,1,.44.6l1.6,4.8a1.21,1.21,0,0,0,1.15.83H352a1.22,1.22,0,0,0,1.19-1.45l-.65-3.26a1.15,1.15,0,0,0-.25-.52l-3.55-4.44a1.21,1.21,0,0,1-.26-.76V215l1-10.51a1.17,1.17,0,0,1,.35-.75l3.33-3.33A1.22,1.22,0,0,1,354,200h2.39a1.22,1.22,0,0,1,1.21,1.1h0a1.21,1.21,0,0,0,2.41.08l.47-3.09a1.1,1.1,0,0,0,0-.18v-6.62a1.31,1.31,0,0,0-.13-.55l-2.18-4.36a1.21,1.21,0,0,0-1.87-.38L354,187.93a26.94,26.94,0,0,0-9.54,20.57h0a1.22,1.22,0,0,1-.36.86l-3.37,3.36a1.2,1.2,0,0,1-.66.34l-4.89.82a1.21,1.21,0,0,0-.95.81l-1.39,4.16a1.22,1.22,0,0,1-1.53.77l-1.49-.5a1.26,1.26,0,0,1-.59-.42l-.19-.26a17.66,17.66,0,0,1-3.29-7.69h0a21.93,21.93,0,0,1-.29-3.53v-2.29q0-.93.09-1.86l.38-3.76a37.77,37.77,0,0,1,2.51-10.26h0l0-.1,1.43-2.85a31.74,31.74,0,0,0,2.39-6.46l.93-3.72a1.21,1.21,0,0,1,1.18-.92h.9a.92.92,0,0,1,.29,0l3.73.93a1.06,1.06,0,0,1,.25.09l1.66.83a1.21,1.21,0,0,0,1.73-1.33l-.35-1.77a1.22,1.22,0,0,0-1-.95l-4-.81a1.12,1.12,0,0,1-.31-.1l-1.57-.79a4.62,4.62,0,0,0-4.46.17h0a12.32,12.32,0,0,0-4.42,4.56h0A33.3,33.3,0,0,0,322.84,189Z"/><path class="cls-4" d="M598,252.88l-3.74,6.74a1.7,1.7,0,0,0,.55,2.26l1.09.73a1.69,1.69,0,0,1,.73,1.09l.86,4.3.77,3.09a1.74,1.74,0,0,0,1.12,1.21l.3.1a1.72,1.72,0,0,0,2.22-1.26l1.48-6.65a1.7,1.7,0,0,1,.46-.84l5.45-5.45a1.6,1.6,0,0,0,.32-.45l5.7-11.39a1.71,1.71,0,0,0,.18-.77v-13a1.74,1.74,0,0,1,.34-1l5.52-7.36a1.5,1.5,0,0,0,.22-.39l1.65-4.13a1.7,1.7,0,0,0,0-1.31l-2.39-5.57a1.72,1.72,0,0,0-1.16-1h0a1.72,1.72,0,0,0-2,2.27l1.59,4.24a1.72,1.72,0,0,1-.08,1.37l-3.62,7.26a1,1,0,0,0-.08.14l-4.77,7.62a1.77,1.77,0,0,1-.5.52l-2.06,1.37a1.74,1.74,0,0,1-1.37.24l-.75-.19a1.72,1.72,0,0,1-1-2.7l1.24-1.65a1.6,1.6,0,0,0,.29-.62l.73-2.92a1.7,1.7,0,0,0-.23-1.37l0,0a1.72,1.72,0,0,0-2.93.12l-3.34,6a1.66,1.66,0,0,0-.19,1.11l.7,4.24a1.73,1.73,0,0,0,1.36,1.4l3.26.65a1.7,1.7,0,0,0,1.11-.14l1-.5a1.72,1.72,0,0,1,2.49,1.54v3.86a1.65,1.65,0,0,1-.15.69l-3.76,8.47a1.76,1.76,0,0,1-.23.37L603,259.36a1.73,1.73,0,0,1-1.34.64h-.46a1.7,1.7,0,0,1-1.21-.5l-.29-.29a1.71,1.71,0,0,1,0-2.42l1.5-1.5a1.81,1.81,0,0,0,.42-.67l.11-.36A1.71,1.71,0,0,0,600.1,252h-.61A1.72,1.72,0,0,0,598,252.88Z"/><polygon class="cls-18" points="565.48 693 576.48 691 581.48 728 569.48 729 565.48 693"/><path d="M565.48,693h0a4.83,4.83,0,0,1,1.41-3.41h0a3.07,3.07,0,0,1,1.39-.81l5.23-1.42a17,17,0,0,1,9.86.27h0a2.32,2.32,0,0,1,1.48,1.48l.64,1.93a43.37,43.37,0,0,1,1.55,6L592.48,727l2.6,18.24c.27,1.84.46,3.69.6,5.54l.63,8.89a7.37,7.37,0,0,1-1,4.33l-.6,1a5.69,5.69,0,0,1-3.46,2.57h0a2.35,2.35,0,0,1-2.61-1.13h0a40.61,40.61,0,0,1-4.94-15.91L582.48,738l-1-10-5-37Z"/><polygon class="cls-3" points="567.48 693 567.48 700 567.48 701 576.48 700 576.48 697 576.48 691 567.48 693"/><polygon class="cls-24" points="659.48 708 739.48 696 748.48 788 663.48 806 659.48 708"/><path d="M660,719.79l29.94-3.39c2.38-.27,4.76-.64,7.11-1.11l43.51-8.69,1.19,12.19L695.48,726l-35,5.86Z"/><polygon class="cls-16" points="663 794.14 676.48 794 676.48 798 663.23 800 663 794.14"/><path class="cls-16" d="M704.48,789l17.64-2.79c.91-.14,1.81-.31,2.7-.5l22.94-5,.72,5.32-23,4-21,3Z"/></g></g></svg>