<svg xmlns="http://www.w3.org/2000/svg" viewBox="0 0 450.7 100.3"><defs><style>.cls-1{fill:#1d1d1b;}.cls-2{fill:#bc2f2c;}</style></defs><g id="Layer_2" data-name="Layer 2"><g id="white_bg" data-name="white bg"><path class="cls-1" d="M74.94,14.57,64.56,24.84C58,17.89,50.35,14.43,41.6,14.43A26.28,26.28,0,0,0,22.45,22a24.81,24.81,0,0,0-7.71,18.43,25.51,25.51,0,0,0,8,19A27.28,27.28,0,0,0,42.5,67.2,24.23,24.23,0,0,0,55.38,64a22.59,22.59,0,0,0,8.46-10H41.41V40.11H80.35l.12,3.25a38.14,38.14,0,0,1-5.26,19.25A36.81,36.81,0,0,1,61.56,76.5a38.78,38.78,0,0,1-19.62,4.8,43.6,43.6,0,0,1-21.49-5.25A38.23,38.23,0,0,1,5.52,61.16,41.59,41.59,0,0,1,0,40.25,38.92,38.92,0,0,1,10.16,13.51Q22.21,0,41.52,0a47.61,47.61,0,0,1,18.9,3.74Q67.82,6.88,74.94,14.57Z"/><path class="cls-1" d="M144.38,54.87H98.23a15.47,15.47,0,0,0,5.34,9.73,16.75,16.75,0,0,0,11.07,3.61,19.06,19.06,0,0,0,13.84-5.66l12.11,5.68a28.56,28.56,0,0,1-10.85,9.52,34,34,0,0,1-15,3.07q-13.47,0-21.94-8.49T84.34,51q0-13.08,8.43-21.75A28.45,28.45,0,0,1,114,20.62q13.5,0,22,8.66t8.46,22.86ZM130,43.57a14.6,14.6,0,0,0-5.62-7.8,16.35,16.35,0,0,0-9.72-3,17.18,17.18,0,0,0-10.53,3.36q-2.86,2.11-5.28,7.43Z"/><path class="cls-1" d="M150.62,22.1H165V28a34.27,34.27,0,0,1,8.85-5.74A21.32,21.32,0,0,1,182,20.62a19.66,19.66,0,0,1,14.44,5.95c3.32,3.37,5,8.35,5,15V79.33H187.19v-25q0-10.29-.93-13.63a9.35,9.35,0,0,0-3.19-5.14,9,9,0,0,0-5.65-1.76A10.58,10.58,0,0,0,170,36.7a15.68,15.68,0,0,0-4.35,8.08c-.4,1.79-.62,5.63-.62,11.6V79.33H150.62Z"/><path class="cls-2" d="M211.48,79.33V2h12.16c7.06,0,12.24.45,15.49,1.36a20.69,20.69,0,0,1,11.07,6.84A18.06,18.06,0,0,1,254.31,22a16.83,16.83,0,0,1-1.89,8,19.79,19.79,0,0,1-6.06,6.75c4.69,2.22,8.15,5,10.31,8.3a21,21,0,0,1,3.26,11.76,21.84,21.84,0,0,1-3.36,11.88,21.27,21.27,0,0,1-8.71,8c-3.52,1.8-8.43,2.65-14.69,2.65ZM226.21,16V32.32h3.22c3.6,0,6.26-.76,8-2.28a7.7,7.7,0,0,0,2.62-6.14,7.27,7.27,0,0,0-2.47-5.76C235.9,16.69,233.4,16,230,16Zm0,29.46V65.3h3.7q9.17,0,12.36-2.31a7.78,7.78,0,0,0,3.19-6.74,9.38,9.38,0,0,0-3.74-7.88q-3.74-2.91-12.46-2.9Z"/><path class="cls-1" d="M293.9,20.62a30.42,30.42,0,0,1,15.24,4.05,29,29,0,0,1,11.11,11,29.44,29.44,0,0,1,4,15,30,30,0,0,1-4.05,15.14,28.84,28.84,0,0,1-11,11,30.19,30.19,0,0,1-15.32,4,28.54,28.54,0,0,1-21-8.75,29.1,29.1,0,0,1-8.71-21.3,29.05,29.05,0,0,1,9.82-22.35A28.76,28.76,0,0,1,293.9,20.62Zm.24,13.54A14.73,14.73,0,0,0,283,38.81a16.47,16.47,0,0,0-4.45,11.9q0,7.5,4.39,12.1a14.66,14.66,0,0,0,11.16,4.64,14.91,14.91,0,0,0,11.21-4.66,16.8,16.8,0,0,0,4.49-12.08,16.68,16.68,0,0,0-4.39-12A14.89,14.89,0,0,0,294.14,34.16Z"/><path class="cls-1" d="M372.87,0h14.39V79.33H372.87v-6a27.52,27.52,0,0,1-8.44,5.74,23.56,23.56,0,0,1-9.17,1.77c-7.37,0-13.78-2.85-19.18-8.59S328,59.37,328,50.83c0-8.84,2.59-16.07,7.81-21.74a25,25,0,0,1,19-8.47,23.83,23.83,0,0,1,9.67,2,25.72,25.72,0,0,1,8.36,5.82ZM357.78,33.88a14.6,14.6,0,0,0-11.08,4.71,17,17,0,0,0-4.41,12.1,17.16,17.16,0,0,0,4.5,12.18,14.47,14.47,0,0,0,11,4.81A14.77,14.77,0,0,0,369,63q4.47-4.71,4.46-12.34c0-5-1.48-9-4.46-12.12A14.91,14.91,0,0,0,357.78,33.88Z"/><polygon class="cls-1" points="390.01 22.1 404.71 22.1 419.57 58.01 435.97 22.1 450.7 22.1 414.85 100.3 400.02 100.3 411.77 75.08 390.01 22.1"/></g></g></svg>