<svg xmlns="http://www.w3.org/2000/svg" viewBox="0 0 125.55 27.94"><defs><style>.cls-1{fill:#1d1d1b;}.cls-2{fill:#bc2f2c;}</style></defs><g id="Layer_2" data-name="Layer 2"><g id="칼선"><path class="cls-1" d="M20.87,4.06,18,6.92A8.5,8.5,0,0,0,11.59,4,7.31,7.31,0,0,0,6.25,6.13a6.92,6.92,0,0,0-2.14,5.13,7.12,7.12,0,0,0,2.22,5.29,7.64,7.64,0,0,0,5.51,2.17,6.83,6.83,0,0,0,3.59-.89A6.29,6.29,0,0,0,17.78,15H11.53V11.17H22.38l0,.91A10.63,10.63,0,0,1,21,17.44a10.31,10.31,0,0,1-3.8,3.87,10.82,10.82,0,0,1-5.47,1.34,12,12,0,0,1-6-1.47A10.55,10.55,0,0,1,1.54,17,11.53,11.53,0,0,1,0,11.21,10.88,10.88,0,0,1,2.83,3.76,11.18,11.18,0,0,1,11.56,0a13.22,13.22,0,0,1,5.27,1A12,12,0,0,1,20.87,4.06Z"/><path class="cls-1" d="M40.22,15.28H27.36A4.33,4.33,0,0,0,28.85,18a4.64,4.64,0,0,0,3.08,1,5.28,5.28,0,0,0,3.86-1.58L39.16,19a8,8,0,0,1-3,2.65,9.46,9.46,0,0,1-4.17.85,8.3,8.3,0,0,1-6.12-2.36,8.07,8.07,0,0,1-2.36-5.93,8.37,8.37,0,0,1,2.35-6.06,7.92,7.92,0,0,1,5.91-2.42,8.19,8.19,0,0,1,6.12,2.42,8.68,8.68,0,0,1,2.36,6.36Zm-4-3.14A4,4,0,0,0,34.65,10a4.58,4.58,0,0,0-2.71-.83,4.75,4.75,0,0,0-2.93.94,5.2,5.2,0,0,0-1.47,2.07Z"/><path class="cls-1" d="M42,6.16h4V7.79A9.68,9.68,0,0,1,48.42,6.2a5.79,5.79,0,0,1,2.27-.46,5.48,5.48,0,0,1,4,1.66,5.72,5.72,0,0,1,1.39,4.16V22.1h-4v-7a17,17,0,0,0-.26-3.8A2.51,2.51,0,0,0,51,9.9a2.47,2.47,0,0,0-1.57-.49,2.94,2.94,0,0,0-2.08.81,4.41,4.41,0,0,0-1.21,2.25A19.06,19.06,0,0,0,46,15.71V22.1H42Z"/><path class="cls-2" d="M58.91,22.1V.54H62.3a17.72,17.72,0,0,1,4.31.38,5.75,5.75,0,0,1,3.08,1.91,5,5,0,0,1,1.15,3.29,4.62,4.62,0,0,1-.53,2.23,5.44,5.44,0,0,1-1.69,1.88,6.72,6.72,0,0,1,2.88,2.31,5.91,5.91,0,0,1,.9,3.28,6.06,6.06,0,0,1-.93,3.31A6,6,0,0,1,69,21.36,9.14,9.14,0,0,1,65,22.1ZM63,4.46V9h.9a3.35,3.35,0,0,0,2.23-.63,2.16,2.16,0,0,0,.73-1.71,2,2,0,0,0-.69-1.61,3.16,3.16,0,0,0-2.11-.59Zm0,8.21v5.52h1a6.51,6.51,0,0,0,3.45-.64,2.19,2.19,0,0,0,.89-1.88,2.61,2.61,0,0,0-1-2.2,5.74,5.74,0,0,0-3.47-.8Z"/><path class="cls-1" d="M81.87,5.74a8.44,8.44,0,0,1,4.24,1.13,8.09,8.09,0,0,1,3.1,3.07,8.26,8.26,0,0,1,1.12,4.18,8.37,8.37,0,0,1-1.13,4.22,8,8,0,0,1-3,3.07,8.41,8.41,0,0,1-4.27,1.1A8,8,0,0,1,76,20.07a8.06,8.06,0,0,1-2.42-5.93,8.08,8.08,0,0,1,2.73-6.22A8,8,0,0,1,81.87,5.74Zm.07,3.78a4.1,4.1,0,0,0-3.11,1.29,4.58,4.58,0,0,0-1.24,3.32,4.71,4.71,0,0,0,1.22,3.37,4.41,4.41,0,0,0,6.24,0,4.67,4.67,0,0,0,1.25-3.36,4.65,4.65,0,0,0-1.23-3.34A4.14,4.14,0,0,0,81.94,9.52Z"/><path class="cls-1" d="M103.87,0h4V22.1h-4V20.42a8,8,0,0,1-2.35,1.6,6.56,6.56,0,0,1-2.56.49,7.08,7.08,0,0,1-5.34-2.39,8.37,8.37,0,0,1-2.25-6A8.61,8.61,0,0,1,93.54,8.1a7,7,0,0,1,5.3-2.36,6.79,6.79,0,0,1,2.7.55,7.42,7.42,0,0,1,2.33,1.63ZM99.66,9.44a4,4,0,0,0-3.08,1.31,4.68,4.68,0,0,0-1.23,3.37,4.78,4.78,0,0,0,1.25,3.39,4,4,0,0,0,3.08,1.34,4.12,4.12,0,0,0,3.12-1.31A4.8,4.8,0,0,0,104,14.1a4.64,4.64,0,0,0-1.24-3.37A4.13,4.13,0,0,0,99.66,9.44Z"/><polygon class="cls-1" points="108.64 6.16 112.73 6.16 116.87 16.16 121.44 6.16 125.55 6.16 115.56 27.94 111.43 27.94 114.7 20.91 108.64 6.16"/></g></g></svg>