<svg xmlns="http://www.w3.org/2000/svg" viewBox="0 0 139.37 196.18"><defs><style>.cls-1{fill:#fff;}</style></defs><g id="Layer_2" data-name="Layer 2"><g id="Layer_2-2" data-name="Layer 2"><path class="cls-1" d="M118.6,40.83s0,2.12-1.92,2.12h-1.23a2,2,0,0,1-1.91-2.13l.07-24.92a5.07,5.07,0,0,0-1.48-3.46l-8.37-7.55a2.23,2.23,0,0,1-.28-3l.78-1.06A1.77,1.77,0,0,1,107,.52L117.2,9.77a5,5,0,0,1,1.47,3.46Z"/><path class="cls-1" d="M110.55,16.94a1.77,1.77,0,0,1-2.69.32l-7.89-7a2.22,2.22,0,0,1-.3-3l.78-1.07a1.76,1.76,0,0,1,2.68-.32l7.89,7a2.24,2.24,0,0,1,.3,3Z"/><path class="cls-1" d="M124.88,40.85S124.87,43,123,43h-1.23a2,2,0,0,1-1.91-2.13l.08-27.59a5.07,5.07,0,0,1,1.49-3.45L131.68.61a1.75,1.75,0,0,1,2.69.32L135.14,2a2.23,2.23,0,0,1-.29,3l-8.41,7.5a5,5,0,0,0-1.5,3.45Z"/><path class="cls-1" d="M130.69,17.33A1.75,1.75,0,0,1,128,17l-.76-1.07a2.23,2.23,0,0,1,.31-3l7.93-7a1.75,1.75,0,0,1,2.68.35l.77,1.07a2.24,2.24,0,0,1-.31,3Z"/><path class="cls-1" d="M118.6,84.41s0,2.12-1.92,2.12h-1.23a2,2,0,0,1-1.91-2.13l.07-24.91A5.05,5.05,0,0,0,112.13,56l-8.37-7.56a2.22,2.22,0,0,1-.28-3l.78-1.07a1.76,1.76,0,0,1,2.69-.3l10.25,9.25a5,5,0,0,1,1.47,3.45Z"/><path class="cls-1" d="M110.55,60.52a1.77,1.77,0,0,1-2.69.33l-7.89-7a2.22,2.22,0,0,1-.3-3l.78-1.07a1.75,1.75,0,0,1,2.68-.33l7.89,7a2.23,2.23,0,0,1,.3,3Z"/><path class="cls-1" d="M124.88,84.43s0,2.12-1.92,2.12h-1.23a1.94,1.94,0,0,1-1.91-2.13l.08-27.59a5.07,5.07,0,0,1,1.49-3.45l10.29-9.18a1.75,1.75,0,0,1,2.69.32l.77,1.07a2.24,2.24,0,0,1-.29,3l-8.41,7.49a5,5,0,0,0-1.5,3.46Z"/><path class="cls-1" d="M130.69,60.92a1.75,1.75,0,0,1-2.69-.34l-.76-1.07a2.23,2.23,0,0,1,.31-3l7.93-7a1.74,1.74,0,0,1,2.68.34l.77,1.07a2.24,2.24,0,0,1-.31,3Z"/><path class="cls-1" d="M118.6,128s0,2.12-1.92,2.11h-1.23a2,2,0,0,1-1.91-2.13l.07-24.91a5.07,5.07,0,0,0-1.48-3.46l-8.37-7.55a2.23,2.23,0,0,1-.28-3l.78-1.06a1.76,1.76,0,0,1,2.69-.31l10.25,9.25a5,5,0,0,1,1.47,3.46Z"/><path class="cls-1" d="M110.55,104.11a1.77,1.77,0,0,1-2.69.32l-7.89-7a2.22,2.22,0,0,1-.3-3l.78-1.07a1.75,1.75,0,0,1,2.68-.33l7.89,7a2.23,2.23,0,0,1,.3,3Z"/><path class="cls-1" d="M124.88,128s0,2.12-1.92,2.11h-1.23a2,2,0,0,1-1.91-2.13l.08-27.6A5.09,5.09,0,0,1,121.39,97l10.29-9.18a1.75,1.75,0,0,1,2.69.33l.77,1.07a2.23,2.23,0,0,1-.29,3l-8.41,7.5a5,5,0,0,0-1.5,3.45Z"/><path class="cls-1" d="M130.69,104.5a1.75,1.75,0,0,1-2.69-.34l-.76-1.07a2.23,2.23,0,0,1,.31-3l7.93-7a1.75,1.75,0,0,1,2.68.34l.77,1.08a2.24,2.24,0,0,1-.31,3Z"/><path class="cls-1" d="M118.6,171.58s0,2.12-1.92,2.12h-1.23a2,2,0,0,1-1.91-2.13l.07-24.92a5,5,0,0,0-1.48-3.45l-8.37-7.56a2.22,2.22,0,0,1-.28-3l.78-1.07a1.76,1.76,0,0,1,2.69-.3l10.25,9.24a5,5,0,0,1,1.47,3.46Z"/><path class="cls-1" d="M110.55,147.69a1.77,1.77,0,0,1-2.69.32L100,141a2.22,2.22,0,0,1-.3-3l.78-1.06a1.75,1.75,0,0,1,2.68-.33l7.89,7a2.23,2.23,0,0,1,.3,3Z"/><path class="cls-1" d="M124.88,171.6s0,2.12-1.92,2.11h-1.23a2,2,0,0,1-1.91-2.13L119.9,144a5.07,5.07,0,0,1,1.49-3.45l10.29-9.18a1.75,1.75,0,0,1,2.69.32l.77,1.07a2.23,2.23,0,0,1-.29,3l-8.41,7.5a5,5,0,0,0-1.5,3.46Z"/><path class="cls-1" d="M130.69,148.09a1.76,1.76,0,0,1-2.69-.35l-.76-1.07a2.23,2.23,0,0,1,.31-3l7.93-7a1.75,1.75,0,0,1,2.68.35l.77,1.07a2.24,2.24,0,0,1-.31,3Z"/><path class="cls-1" d="M85.94,63s0,2.12-1.91,2.11H82.79A1.94,1.94,0,0,1,80.89,63L81,38.08a5.05,5.05,0,0,0-1.48-3.46L71.1,27.06a2.21,2.21,0,0,1-.27-3L71.6,23a1.76,1.76,0,0,1,2.69-.31L84.54,32A5,5,0,0,1,86,35.42Z"/><path class="cls-1" d="M77.89,39.12a1.77,1.77,0,0,1-2.69.33l-7.89-7a2.22,2.22,0,0,1-.3-3l.78-1.07A1.76,1.76,0,0,1,70.47,28l7.9,7a2.22,2.22,0,0,1,.29,3Z"/><path class="cls-1" d="M92.22,63s0,2.12-1.92,2.11H89.07A2,2,0,0,1,87.16,63l.08-27.59A5.07,5.07,0,0,1,88.73,32L99,22.79a1.75,1.75,0,0,1,2.69.32l.77,1.07a2.23,2.23,0,0,1-.29,3l-8.41,7.5a5,5,0,0,0-1.49,3.45Z"/><path class="cls-1" d="M98,39.52a1.76,1.76,0,0,1-2.69-.35l-.76-1.06a2.25,2.25,0,0,1,.31-3l7.93-7a1.75,1.75,0,0,1,2.68.35l.77,1.08a2.22,2.22,0,0,1-.31,3Z"/><path class="cls-1" d="M85.94,106.61s0,2.12-1.91,2.12H82.79a2,2,0,0,1-1.9-2.14L81,81.68a5.05,5.05,0,0,0-1.48-3.46L71.1,70.66a2.21,2.21,0,0,1-.27-3l.77-1.07a1.76,1.76,0,0,1,2.69-.3l10.25,9.24A5,5,0,0,1,86,79Z"/><path class="cls-1" d="M77.89,82.72a1.77,1.77,0,0,1-2.69.33l-7.89-7a2.22,2.22,0,0,1-.3-3L67.79,72a1.75,1.75,0,0,1,2.68-.33l7.9,7a2.24,2.24,0,0,1,.29,3Z"/><path class="cls-1" d="M92.22,106.63s0,2.12-1.92,2.11H89.07a2,2,0,0,1-1.91-2.13L87.24,79a5.07,5.07,0,0,1,1.49-3.45L99,66.39a1.75,1.75,0,0,1,2.69.32l.77,1.08a2.23,2.23,0,0,1-.29,3l-8.41,7.49a5,5,0,0,0-1.49,3.46Z"/><path class="cls-1" d="M98,83.12a1.75,1.75,0,0,1-2.69-.35l-.76-1.07a2.22,2.22,0,0,1,.31-3l7.93-7a1.74,1.74,0,0,1,2.68.34l.77,1.08a2.22,2.22,0,0,1-.31,3Z"/><path class="cls-1" d="M85.94,150.21s0,2.12-1.91,2.12H82.79a1.94,1.94,0,0,1-1.9-2.13L81,125.28a5.07,5.07,0,0,0-1.48-3.46l-8.37-7.56a2.21,2.21,0,0,1-.27-3l.77-1.06a1.76,1.76,0,0,1,2.69-.31l10.25,9.25A5,5,0,0,1,86,122.61Z"/><path class="cls-1" d="M77.89,126.32a1.77,1.77,0,0,1-2.69.33l-7.89-7a2.23,2.23,0,0,1-.3-3l.78-1.06a1.75,1.75,0,0,1,2.68-.33l7.9,7a2.24,2.24,0,0,1,.29,3Z"/><path class="cls-1" d="M92.22,150.23s0,2.12-1.92,2.12H89.07a2,2,0,0,1-1.91-2.13l.08-27.59a5.09,5.09,0,0,1,1.49-3.46L99,110a1.75,1.75,0,0,1,2.69.32l.77,1.07a2.24,2.24,0,0,1-.29,3l-8.41,7.49a5,5,0,0,0-1.49,3.46Z"/><path class="cls-1" d="M98,126.72a1.75,1.75,0,0,1-2.69-.34l-.76-1.07a2.23,2.23,0,0,1,.31-3l7.93-7a1.74,1.74,0,0,1,2.68.34l.77,1.08a2.22,2.22,0,0,1-.31,3Z"/><path class="cls-1" d="M85.32,194s0,2.12-1.91,2.12H82.17a1.94,1.94,0,0,1-1.9-2.13l.06-24.91a5.09,5.09,0,0,0-1.47-3.46l-8.37-7.56a2.21,2.21,0,0,1-.28-3l.78-1.06a1.76,1.76,0,0,1,2.69-.31L83.92,163a5,5,0,0,1,1.48,3.46Z"/><path class="cls-1" d="M77.27,170.15a1.77,1.77,0,0,1-2.69.33l-7.89-7a2.22,2.22,0,0,1-.3-3l.78-1.07a1.76,1.76,0,0,1,2.69-.33l7.89,7a2.22,2.22,0,0,1,.29,3Z"/><path class="cls-1" d="M91.6,194.06s0,2.12-1.92,2.12H88.45a1.94,1.94,0,0,1-1.9-2.13l.07-27.59A5.09,5.09,0,0,1,88.11,163l10.3-9.18a1.74,1.74,0,0,1,2.68.32l.78,1.07a2.25,2.25,0,0,1-.3,3l-8.41,7.49a5,5,0,0,0-1.49,3.46Z"/><path class="cls-1" d="M97.41,170.55a1.74,1.74,0,0,1-2.68-.34L94,169.14a2.23,2.23,0,0,1,.31-3l7.93-7a1.74,1.74,0,0,1,2.68.34l.77,1.08a2.22,2.22,0,0,1-.31,3Z"/><path class="cls-1" d="M52.67,40.83s0,2.12-1.92,2.12H49.52a2,2,0,0,1-1.91-2.13l.07-24.92a5.12,5.12,0,0,0-1.48-3.46L37.83,4.88a2.23,2.23,0,0,1-.28-3L38.33.83A1.77,1.77,0,0,1,41,.52L51.26,9.77a5,5,0,0,1,1.48,3.46Z"/><path class="cls-1" d="M44.61,16.94a1.77,1.77,0,0,1-2.69.32l-7.88-7a2.21,2.21,0,0,1-.3-3l.77-1.07a1.77,1.77,0,0,1,2.69-.32l7.89,7a2.23,2.23,0,0,1,.29,3Z"/><path class="cls-1" d="M58.94,40.85S58.94,43,57,43H55.79a1.94,1.94,0,0,1-1.9-2.13L54,13.24a5.11,5.11,0,0,1,1.5-3.45L65.75.61a1.74,1.74,0,0,1,2.68.32L69.21,2a2.24,2.24,0,0,1-.29,3l-8.41,7.5A5,5,0,0,0,59,15.93Z"/><path class="cls-1" d="M64.75,17.33A1.74,1.74,0,0,1,62.07,17l-.76-1.07a2.24,2.24,0,0,1,.3-3l7.93-7a1.76,1.76,0,0,1,2.69.35L73,7.38a2.23,2.23,0,0,1-.31,3Z"/><path class="cls-1" d="M52.67,84.41s0,2.12-1.92,2.12H49.52a2,2,0,0,1-1.91-2.13l.07-24.91A5.11,5.11,0,0,0,46.2,56l-8.37-7.56a2.22,2.22,0,0,1-.28-3l.78-1.07a1.76,1.76,0,0,1,2.69-.3l10.24,9.25a5,5,0,0,1,1.48,3.45Z"/><path class="cls-1" d="M44.61,60.52a1.77,1.77,0,0,1-2.69.33l-7.88-7a2.21,2.21,0,0,1-.3-3l.77-1.07a1.77,1.77,0,0,1,2.69-.33l7.89,7a2.22,2.22,0,0,1,.29,3Z"/><path class="cls-1" d="M58.94,84.43s0,2.12-1.91,2.12H55.79a1.94,1.94,0,0,1-1.9-2.13L54,56.82a5.11,5.11,0,0,1,1.5-3.45l10.29-9.18a1.74,1.74,0,0,1,2.68.32l.78,1.07a2.26,2.26,0,0,1-.29,3l-8.41,7.49A5,5,0,0,0,59,59.52Z"/><path class="cls-1" d="M64.75,60.92a1.74,1.74,0,0,1-2.68-.34l-.76-1.07a2.24,2.24,0,0,1,.3-3l7.93-7a1.75,1.75,0,0,1,2.69.34L73,51a2.23,2.23,0,0,1-.31,3Z"/><path class="cls-1" d="M52.67,128s0,2.12-1.92,2.11H49.52A1.94,1.94,0,0,1,47.61,128l.07-24.91A5.12,5.12,0,0,0,46.2,99.6l-8.37-7.55a2.23,2.23,0,0,1-.28-3L38.33,88A1.76,1.76,0,0,1,41,87.69l10.24,9.25a5,5,0,0,1,1.48,3.46Z"/><path class="cls-1" d="M44.61,104.11a1.77,1.77,0,0,1-2.69.32L34,97.4a2.21,2.21,0,0,1-.3-3l.77-1.07A1.77,1.77,0,0,1,37.2,93l7.89,7a2.22,2.22,0,0,1,.29,3Z"/><path class="cls-1" d="M58.94,128s0,2.12-1.91,2.11H55.79a1.94,1.94,0,0,1-1.9-2.13L54,100.4A5.12,5.12,0,0,1,55.46,97l10.29-9.18a1.74,1.74,0,0,1,2.68.33l.78,1.07a2.24,2.24,0,0,1-.29,3l-8.41,7.5A5,5,0,0,0,59,103.1Z"/><path class="cls-1" d="M64.75,104.5a1.74,1.74,0,0,1-2.68-.34l-.76-1.07a2.24,2.24,0,0,1,.3-3l7.93-7a1.76,1.76,0,0,1,2.69.34L73,94.55a2.23,2.23,0,0,1-.31,3Z"/><path class="cls-1" d="M52.67,171.58s0,2.12-1.92,2.12H49.52a2,2,0,0,1-1.91-2.13l.07-24.92a5.09,5.09,0,0,0-1.48-3.45l-8.37-7.56a2.22,2.22,0,0,1-.28-3l.78-1.07a1.76,1.76,0,0,1,2.69-.3l10.24,9.24A5,5,0,0,1,52.74,144Z"/><path class="cls-1" d="M44.61,147.69a1.77,1.77,0,0,1-2.69.32L34,141a2.21,2.21,0,0,1-.3-3l.77-1.06a1.77,1.77,0,0,1,2.69-.33l7.89,7a2.22,2.22,0,0,1,.29,3Z"/><path class="cls-1" d="M58.94,171.6s0,2.12-1.91,2.11H55.79a1.94,1.94,0,0,1-1.9-2.13L54,144a5.11,5.11,0,0,1,1.5-3.45l10.29-9.18a1.74,1.74,0,0,1,2.68.32l.78,1.07a2.24,2.24,0,0,1-.29,3l-8.41,7.5a5,5,0,0,0-1.5,3.46Z"/><path class="cls-1" d="M64.75,148.09a1.75,1.75,0,0,1-2.68-.35l-.76-1.07a2.24,2.24,0,0,1,.3-3l7.93-7a1.76,1.76,0,0,1,2.69.35l.76,1.07a2.23,2.23,0,0,1-.31,3Z"/><path class="cls-1" d="M19.39,193.06s0,2.12-1.92,2.12H16.24A2,2,0,0,1,14.33,193l.07-24.92a5.06,5.06,0,0,0-1.47-3.45l-8.38-7.56a2.21,2.21,0,0,1-.27-3l.77-1.07a1.76,1.76,0,0,1,2.69-.3L18,162a5,5,0,0,1,1.48,3.46Z"/><path class="cls-1" d="M11.34,169.17a1.77,1.77,0,0,1-2.69.32l-7.89-7a2.22,2.22,0,0,1-.3-3l.78-1.06a1.75,1.75,0,0,1,2.68-.33l7.9,7a2.22,2.22,0,0,1,.29,3Z"/><path class="cls-1" d="M25.67,193.08s0,2.12-1.92,2.11H22.52a2,2,0,0,1-1.91-2.13l.08-27.59A5.06,5.06,0,0,1,22.18,162l10.3-9.18a1.74,1.74,0,0,1,2.68.32l.77,1.07a2.23,2.23,0,0,1-.29,3l-8.41,7.5a5,5,0,0,0-1.49,3.46Z"/><path class="cls-1" d="M31.48,169.57a1.76,1.76,0,0,1-2.69-.35L28,168.15a2.23,2.23,0,0,1,.31-3l7.93-7a1.75,1.75,0,0,1,2.68.35l.77,1.07a2.23,2.23,0,0,1-.31,3Z"/><path class="cls-1" d="M20,63s0,2.12-1.92,2.11H16.86A2,2,0,0,1,15,63L15,38.08a5.11,5.11,0,0,0-1.48-3.46L5.17,27.06a2.22,2.22,0,0,1-.28-3L5.67,23a1.76,1.76,0,0,1,2.69-.31L18.6,32a4.94,4.94,0,0,1,1.48,3.46Z"/><path class="cls-1" d="M12,39.12a1.76,1.76,0,0,1-2.68.33l-7.89-7a2.22,2.22,0,0,1-.3-3l.78-1.07A1.76,1.76,0,0,1,4.54,28l7.89,7a2.21,2.21,0,0,1,.29,3Z"/><path class="cls-1" d="M26.29,63s0,2.12-1.92,2.11H23.14A2,2,0,0,1,21.23,63l.07-27.59A5.11,5.11,0,0,1,22.8,32l10.29-9.18a1.75,1.75,0,0,1,2.69.32l.77,1.07a2.23,2.23,0,0,1-.29,3l-8.41,7.5a5,5,0,0,0-1.5,3.45Z"/><path class="cls-1" d="M32.09,39.52a1.75,1.75,0,0,1-2.68-.35l-.76-1.06a2.25,2.25,0,0,1,.3-3l7.93-7a1.76,1.76,0,0,1,2.69.35l.77,1.08a2.22,2.22,0,0,1-.32,3Z"/><path class="cls-1" d="M20,106.61s0,2.12-1.92,2.12H16.86A2,2,0,0,1,15,106.59L15,81.68a5.11,5.11,0,0,0-1.48-3.46L5.17,70.66a2.22,2.22,0,0,1-.28-3l.78-1.07a1.76,1.76,0,0,1,2.69-.3L18.6,75.55A5,5,0,0,1,20.08,79Z"/><path class="cls-1" d="M12,82.72a1.76,1.76,0,0,1-2.68.33L1.38,76a2.22,2.22,0,0,1-.3-3L1.86,72a1.75,1.75,0,0,1,2.68-.33l7.89,7a2.22,2.22,0,0,1,.29,3Z"/><path class="cls-1" d="M26.29,106.63s0,2.12-1.92,2.11H23.14a2,2,0,0,1-1.91-2.13L21.3,79a5.11,5.11,0,0,1,1.5-3.45l10.29-9.18a1.75,1.75,0,0,1,2.69.32l.77,1.08a2.23,2.23,0,0,1-.29,3l-8.41,7.49a5,5,0,0,0-1.5,3.46Z"/><path class="cls-1" d="M32.09,83.12a1.74,1.74,0,0,1-2.68-.35l-.76-1.07a2.23,2.23,0,0,1,.3-3l7.93-7a1.75,1.75,0,0,1,2.69.34l.77,1.08a2.22,2.22,0,0,1-.32,3Z"/><path class="cls-1" d="M20,150.21s0,2.12-1.92,2.12H16.86A2,2,0,0,1,15,150.19L15,125.28a5.12,5.12,0,0,0-1.48-3.46l-8.37-7.56a2.22,2.22,0,0,1-.28-3l.78-1.06a1.76,1.76,0,0,1,2.69-.31l10.24,9.25a4.93,4.93,0,0,1,1.48,3.45Z"/><path class="cls-1" d="M12,126.32a1.76,1.76,0,0,1-2.68.33l-7.89-7a2.23,2.23,0,0,1-.3-3l.78-1.06a1.75,1.75,0,0,1,2.68-.33l7.89,7a2.22,2.22,0,0,1,.29,3Z"/><path class="cls-1" d="M26.29,150.23s0,2.12-1.92,2.12H23.14a2,2,0,0,1-1.91-2.13l.07-27.59a5.12,5.12,0,0,1,1.5-3.46L33.09,110a1.75,1.75,0,0,1,2.69.32l.77,1.07a2.24,2.24,0,0,1-.29,3l-8.41,7.49a5,5,0,0,0-1.5,3.46Z"/><path class="cls-1" d="M32.09,126.72a1.74,1.74,0,0,1-2.68-.34l-.76-1.07a2.24,2.24,0,0,1,.3-3l7.93-7a1.75,1.75,0,0,1,2.69.34l.77,1.08a2.22,2.22,0,0,1-.32,3Z"/></g></g></svg>